<svg width="240" height="177" viewBox="0 0 240 177" fill="none" xmlns="http://www.w3.org/2000/svg">
<rect width="240" height="177" rx="12" fill="#E1E2F6"/>
<rect x="8" y="125" width="224" height="44" rx="11" fill="#F1EEFB"/>
<path fill-rule="evenodd" clip-rule="evenodd" d="M38 151.333H34.3333C33.597 151.333 33 150.736 33 150V142C33 141.264 33.597 140.667 34.3333 140.667H38C38.8178 140.667 39.5439 141.059 40 141.666C40.4561 141.059 41.1822 140.667 42 140.667H45.6667C46.4031 140.667 47 141.264 47 142V150C47 150.736 46.4031 151.333 45.6667 151.333H42C41.4059 151.333 40.8924 151.679 40.6495 152.18C40.5231 152.441 40.2898 152.667 40 152.667C39.7102 152.667 39.4769 152.441 39.3505 152.18C39.1076 151.679 38.5941 151.333 38 151.333ZM34 142C34 141.816 34.1492 141.667 34.3333 141.667H38C38.8284 141.667 39.5 142.338 39.5 143.167V150.833C39.0822 150.519 38.5628 150.333 38 150.333H34.3333C34.1492 150.333 34 150.184 34 150V142ZM42 141.667C41.1716 141.667 40.5 142.338 40.5 143.167V150.833C40.9178 150.519 41.4372 150.333 42 150.333H45.6667C45.8507 150.333 46 150.184 46 150V142C46 141.816 45.8507 141.667 45.6667 141.667H42Z" fill="black"/>
<path d="M56.3364 149V148.1L58.7764 145.61C59.3697 145.017 59.6664 144.503 59.6664 144.07C59.6664 143.73 59.563 143.467 59.3564 143.28C59.1564 143.087 58.8997 142.99 58.5864 142.99C57.9997 142.99 57.5664 143.28 57.2864 143.86L56.3164 143.29C56.5364 142.823 56.8464 142.47 57.2464 142.23C57.6464 141.99 58.0897 141.87 58.5764 141.87C59.1897 141.87 59.7164 142.063 60.1564 142.45C60.5964 142.837 60.8164 143.363 60.8164 144.03C60.8164 144.743 60.4197 145.503 59.6264 146.31L58.0464 147.89H60.9464V149H56.3364ZM66.8029 146.67V147.74H66.0029V149H64.8429V147.74H61.4029V146.67L63.8129 142H65.0629L62.6529 146.67H64.8429V144.85H66.0029V146.67H66.8029Z" fill="black"/>
<path d="M86 137V155" stroke="#EDEDFB" stroke-width="2" stroke-linecap="square"/>
<path d="M115.667 144.667C115.667 144.943 115.443 145.167 115.167 145.167H110.833C110.557 145.167 110.333 144.943 110.333 144.667C110.333 144.391 110.557 144.167 110.833 144.167H115.167C115.443 144.167 115.667 144.391 115.667 144.667Z" fill="black"/>
<path d="M114.333 147.333C114.333 147.609 114.109 147.833 113.833 147.833H110.833C110.557 147.833 110.333 147.609 110.333 147.333C110.333 147.057 110.557 146.833 110.833 146.833H113.833C114.109 146.833 114.333 147.057 114.333 147.333Z" fill="black"/>
<path fill-rule="evenodd" clip-rule="evenodd" d="M111.667 138.667C110.93 138.667 110.333 139.264 110.333 140H109C108.264 140 107.667 140.597 107.667 141.333V151.333C107.667 152.07 108.264 152.667 109 152.667H117C117.736 152.667 118.333 152.07 118.333 151.333V141.333C118.333 140.597 117.736 140 117 140H115.667C115.667 139.264 115.07 138.667 114.333 138.667H111.667ZM114.667 140C114.667 139.816 114.517 139.667 114.333 139.667H111.667C111.483 139.667 111.333 139.816 111.333 140V141C111.333 141.184 111.483 141.333 111.667 141.333H114.333C114.517 141.333 114.667 141.184 114.667 141V140ZM115.667 141C115.667 141.736 115.07 142.333 114.333 142.333H111.667C110.93 142.333 110.333 141.736 110.333 141H109C108.816 141 108.667 141.149 108.667 141.333V151.333C108.667 151.517 108.816 151.667 109 151.667H117C117.184 151.667 117.333 151.517 117.333 151.333V141.333C117.333 141.149 117.184 141 117 141H115.667Z" fill="black"/>
<path d="M133.427 145.36C134.114 145.74 134.457 146.307 134.457 147.06C134.457 147.7 134.234 148.207 133.787 148.58C133.341 148.947 132.747 149.13 132.007 149.13C131.267 149.13 130.671 148.947 130.217 148.58C129.771 148.207 129.547 147.7 129.547 147.06C129.547 146.7 129.637 146.373 129.817 146.08C129.997 145.78 130.251 145.54 130.577 145.36C130.051 145.013 129.787 144.52 129.787 143.88C129.787 143.24 130.001 142.747 130.427 142.4C130.854 142.047 131.381 141.87 132.007 141.87C132.627 141.87 133.151 142.047 133.577 142.4C134.011 142.747 134.227 143.24 134.227 143.88C134.227 144.52 133.961 145.013 133.427 145.36ZM132.007 142.96C131.694 142.96 131.437 143.043 131.237 143.21C131.037 143.377 130.937 143.617 130.937 143.93C130.937 144.23 131.037 144.467 131.237 144.64C131.444 144.813 131.701 144.9 132.007 144.9C132.307 144.9 132.561 144.813 132.767 144.64C132.974 144.467 133.077 144.23 133.077 143.93C133.077 143.617 132.974 143.377 132.767 143.21C132.567 143.043 132.314 142.96 132.007 142.96ZM132.007 148.04C132.394 148.04 132.707 147.947 132.947 147.76C133.187 147.567 133.307 147.297 133.307 146.95C133.307 146.603 133.187 146.337 132.947 146.15C132.707 145.957 132.394 145.86 132.007 145.86C131.614 145.86 131.297 145.957 131.057 146.15C130.817 146.337 130.697 146.603 130.697 146.95C130.697 147.297 130.817 147.567 131.057 147.76C131.297 147.947 131.614 148.04 132.007 148.04Z" fill="black"/>
<path d="M154 137V155" stroke="#EDEDFB" stroke-width="2" stroke-linecap="square"/>
<g clip-path="url(#clip0_1907_2202)">
<mask id="mask0_1907_2202" style="mask-type:luminance" maskUnits="userSpaceOnUse" x="173" y="138" width="16" height="16">
<path d="M189 138H173V154H189V138Z" fill="white"/>
</mask>
<g mask="url(#mask0_1907_2202)">
<path fill-rule="evenodd" clip-rule="evenodd" d="M177.667 145C179.047 145 180.167 143.881 180.167 142.5C180.167 141.119 179.047 140 177.667 140C176.286 140 175.167 141.119 175.167 142.5C175.167 143.881 176.286 145 177.667 145ZM177.667 144C178.495 144 179.167 143.328 179.167 142.5C179.167 141.672 178.495 141 177.667 141C176.838 141 176.167 141.672 176.167 142.5C176.167 143.328 176.838 144 177.667 144Z" fill="black"/>
<path fill-rule="evenodd" clip-rule="evenodd" d="M186.833 142.5C186.833 143.881 185.714 145 184.333 145C182.953 145 181.833 143.881 181.833 142.5C181.833 141.119 182.953 140 184.333 140C185.714 140 186.833 141.119 186.833 142.5ZM185.833 142.5C185.833 143.328 185.162 144 184.333 144C183.505 144 182.833 143.328 182.833 142.5C182.833 141.672 183.505 141 184.333 141C185.162 141 185.833 141.672 185.833 142.5Z" fill="black"/>
<path d="M182.749 147.265C183.244 147.094 183.777 147 184.333 147C185.782 147 187.08 147.636 187.968 148.647C187.973 148.653 188 148.69 188 148.778V150C188 150.184 187.851 150.333 187.667 150.333H183.31C183.257 150.701 183.119 151.042 182.915 151.333H187.667C188.403 151.333 189 150.736 189 150V148.778C189 148.489 188.91 148.205 188.719 147.987C187.65 146.769 186.082 146 184.333 146C183.505 146 182.717 146.173 182.003 146.484C181.985 146.492 181.967 146.5 181.95 146.509C182.236 146.739 182.504 146.993 182.749 147.265Z" fill="black"/>
<path fill-rule="evenodd" clip-rule="evenodd" d="M181 151.333C181.315 151.333 181.605 151.224 181.833 151.041C182.138 150.797 182.333 150.421 182.333 150V148.778C182.333 148.489 182.243 148.205 182.053 147.987C181.841 147.746 181.609 147.522 181.36 147.318C180.354 146.494 179.068 146 177.667 146C175.918 146 174.35 146.769 173.281 147.987C173.09 148.205 173 148.489 173 148.778V150C173 150.736 173.597 151.333 174.333 151.333H181ZM181.301 148.647C181.306 148.653 181.333 148.69 181.333 148.778V150C181.333 150.184 181.184 150.333 181 150.333H174.333C174.149 150.333 174 150.184 174 150V148.778C174 148.69 174.027 148.653 174.032 148.647C174.92 147.636 176.218 147 177.667 147C179.115 147 180.414 147.636 181.301 148.647Z" fill="black"/>
</g>
</g>
<path d="M202.251 144.26C202.251 144.793 202.111 145.263 201.831 145.67L199.621 149H198.301L199.901 146.65H199.781C199.054 146.65 198.457 146.43 197.991 145.99C197.531 145.543 197.301 144.967 197.301 144.26C197.301 143.553 197.531 142.98 197.991 142.54C198.457 142.093 199.054 141.87 199.781 141.87C200.507 141.87 201.101 142.093 201.561 142.54C202.021 142.98 202.251 143.553 202.251 144.26ZM198.451 144.26C198.451 144.647 198.574 144.96 198.821 145.2C199.074 145.44 199.394 145.56 199.781 145.56C200.167 145.56 200.484 145.443 200.731 145.21C200.977 144.97 201.101 144.653 201.101 144.26C201.101 143.867 200.977 143.553 200.731 143.32C200.484 143.08 200.167 142.96 199.781 142.96C199.394 142.96 199.074 143.08 198.821 143.32C198.574 143.553 198.451 143.867 198.451 144.26ZM207.7 144.26C207.7 144.793 207.56 145.263 207.28 145.67L205.07 149H203.75L205.35 146.65H205.23C204.503 146.65 203.907 146.43 203.44 145.99C202.98 145.543 202.75 144.967 202.75 144.26C202.75 143.553 202.98 142.98 203.44 142.54C203.907 142.093 204.503 141.87 205.23 141.87C205.957 141.87 206.55 142.093 207.01 142.54C207.47 142.98 207.7 143.553 207.7 144.26ZM203.9 144.26C203.9 144.647 204.023 144.96 204.27 145.2C204.523 145.44 204.843 145.56 205.23 145.56C205.617 145.56 205.933 145.443 206.18 145.21C206.427 144.97 206.55 144.653 206.55 144.26C206.55 143.867 206.427 143.553 206.18 143.32C205.933 143.08 205.617 142.96 205.23 142.96C204.843 142.96 204.523 143.08 204.27 143.32C204.023 143.553 203.9 143.867 203.9 144.26Z" fill="black"/>
<circle cx="43" cy="49" r="25" fill="white"/>
<rect x="32" y="38" width="22" height="22" rx="6" fill="#EDEDFB"/>
<path d="M32 44C32 40.6863 34.6863 38 38 38H48C51.3137 38 54 40.6863 54 44V45H32V44Z" fill="#353297"/>
<path d="M40 49C40 49 37 50.9231 37 51.3077C37 51.6923 40 54 40 54" stroke="#353297" stroke-linecap="round"/>
<path d="M46 49C46 49 49 50.9231 49 51.3077C49 51.6923 46 54 46 54" stroke="#353297" stroke-linecap="round"/>
<path d="M25.712 102.192C26.2027 102.448 26.5867 102.8 26.864 103.248C27.1413 103.696 27.28 104.213 27.28 104.8C27.28 105.717 26.9547 106.48 26.304 107.088C25.6533 107.696 24.8587 108 23.92 108H19.12V96.8H23.568C24.4853 96.8 25.2587 97.0987 25.888 97.696C26.528 98.2827 26.848 99.0187 26.848 99.904C26.848 100.875 26.4693 101.637 25.712 102.192ZM23.568 98.528H20.96V101.472H23.568C23.9733 101.472 24.3147 101.333 24.592 101.056C24.8693 100.768 25.008 100.416 25.008 100C25.008 99.584 24.8693 99.2373 24.592 98.96C24.3147 98.672 23.9733 98.528 23.568 98.528ZM23.92 106.272C24.3467 106.272 24.704 106.123 24.992 105.824C25.2907 105.515 25.44 105.141 25.44 104.704C25.44 104.267 25.2907 103.899 24.992 103.6C24.704 103.291 24.3467 103.136 23.92 103.136H20.96V106.272H23.92ZM35.1878 100H36.9158V108H35.1878V106.848C34.5371 107.755 33.6038 108.208 32.3878 108.208C31.2891 108.208 30.3504 107.803 29.5718 106.992C28.7931 106.171 28.4038 105.173 28.4038 104C28.4038 102.816 28.7931 101.819 29.5718 101.008C30.3504 100.197 31.2891 99.792 32.3878 99.792C33.6038 99.792 34.5371 100.24 35.1878 101.136V100ZM30.8518 105.84C31.3318 106.32 31.9344 106.56 32.6598 106.56C33.3851 106.56 33.9878 106.32 34.4678 105.84C34.9478 105.349 35.1878 104.736 35.1878 104C35.1878 103.264 34.9478 102.656 34.4678 102.176C33.9878 101.685 33.3851 101.44 32.6598 101.44C31.9344 101.44 31.3318 101.685 30.8518 102.176C30.3718 102.656 30.1318 103.264 30.1318 104C30.1318 104.736 30.3718 105.349 30.8518 105.84ZM40.435 102.208C40.435 102.475 40.579 102.688 40.867 102.848C41.1657 102.997 41.523 103.131 41.939 103.248C42.3657 103.355 42.7923 103.483 43.219 103.632C43.6457 103.781 44.003 104.037 44.291 104.4C44.5897 104.752 44.739 105.2 44.739 105.744C44.739 106.512 44.4403 107.115 43.843 107.552C43.2563 107.989 42.515 108.208 41.619 108.208C40.8297 108.208 40.1523 108.043 39.587 107.712C39.0217 107.381 38.611 106.923 38.355 106.336L39.843 105.472C40.1203 106.24 40.7123 106.624 41.619 106.624C42.5257 106.624 42.979 106.325 42.979 105.728C42.979 105.472 42.8297 105.264 42.531 105.104C42.243 104.944 41.8857 104.811 41.459 104.704C41.043 104.587 40.6217 104.453 40.195 104.304C39.7683 104.155 39.4057 103.909 39.107 103.568C38.819 103.216 38.675 102.773 38.675 102.24C38.675 101.504 38.9523 100.912 39.507 100.464C40.0723 100.016 40.771 99.792 41.603 99.792C42.2643 99.792 42.851 99.9413 43.363 100.24C43.8857 100.528 44.2857 100.933 44.563 101.456L43.107 102.272C42.8297 101.664 42.3283 101.36 41.603 101.36C41.2723 101.36 40.995 101.435 40.771 101.584C40.547 101.723 40.435 101.931 40.435 102.208ZM47.7963 98.48C47.5829 98.6933 47.3269 98.8 47.0283 98.8C46.7296 98.8 46.4683 98.6933 46.2443 98.48C46.0309 98.256 45.9243 97.9947 45.9243 97.696C45.9243 97.3973 46.0309 97.1413 46.2443 96.928C46.4576 96.704 46.7189 96.592 47.0283 96.592C47.3376 96.592 47.5989 96.704 47.8123 96.928C48.0256 97.1413 48.1323 97.3973 48.1323 97.696C48.1323 97.9947 48.0203 98.256 47.7963 98.48ZM46.1643 108V100H47.8923V108H46.1643ZM53.6746 108.208C52.4693 108.208 51.4613 107.803 50.6506 106.992C49.8506 106.181 49.4506 105.184 49.4506 104C49.4506 102.805 49.8506 101.808 50.6506 101.008C51.4613 100.197 52.4693 99.792 53.6746 99.792C54.4533 99.792 55.1626 99.9787 55.8026 100.352C56.4426 100.725 56.9226 101.227 57.2426 101.856L55.7546 102.72C55.5733 102.336 55.296 102.037 54.9226 101.824C54.56 101.6 54.1386 101.488 53.6586 101.488C52.9546 101.488 52.3626 101.728 51.8826 102.208C51.4133 102.688 51.1786 103.285 51.1786 104C51.1786 104.715 51.4133 105.312 51.8826 105.792C52.3626 106.272 52.9546 106.512 53.6586 106.512C54.128 106.512 54.5493 106.4 54.9226 106.176C55.3066 105.952 55.5946 105.653 55.7866 105.28L57.2746 106.128C56.9333 106.768 56.4426 107.275 55.8026 107.648C55.1626 108.021 54.4533 108.208 53.6746 108.208ZM60.4585 101.84C60.2238 102.075 59.9412 102.192 59.6105 102.192C59.2798 102.192 58.9972 102.075 58.7625 101.84C58.5278 101.605 58.4105 101.323 58.4105 100.992C58.4105 100.651 58.5225 100.368 58.7465 100.144C58.9812 99.9093 59.2692 99.792 59.6105 99.792C59.9412 99.792 60.2238 99.9093 60.4585 100.144C60.6932 100.379 60.8105 100.661 60.8105 100.992C60.8105 101.323 60.6932 101.605 60.4585 101.84ZM60.4585 107.84C60.2238 108.075 59.9412 108.192 59.6105 108.192C59.2798 108.192 58.9972 108.075 58.7625 107.84C58.5278 107.605 58.4105 107.323 58.4105 106.992C58.4105 106.661 58.5225 106.379 58.7465 106.144C58.9812 105.909 59.2692 105.792 59.6105 105.792C59.9412 105.792 60.2238 105.909 60.4585 106.144C60.6932 106.379 60.8105 106.661 60.8105 106.992C60.8105 107.323 60.6932 107.605 60.4585 107.84ZM73.4006 96.8H75.2406V108H73.4006V103.152H68.6006V108H66.7606V96.8H68.6006V101.392H73.4006V96.8ZM84.7594 96.8V98.56H81.6074V108H79.7674V98.56H76.5994V96.8H84.7594ZM96.84 96.8V108H95V100.016L91.592 105.648H91.368L87.96 100V108H86.12V96.8H88.104L91.48 102.4L94.872 96.8H96.84ZM100.913 106.24H105.473V108H99.0731V96.8H100.913V106.24ZM117.063 100H118.791V108H117.063V106.848C116.412 107.755 115.479 108.208 114.263 108.208C113.164 108.208 112.225 107.803 111.447 106.992C110.668 106.171 110.279 105.173 110.279 104C110.279 102.816 110.668 101.819 111.447 101.008C112.225 100.197 113.164 99.792 114.263 99.792C115.479 99.792 116.412 100.24 117.063 101.136V100ZM112.727 105.84C113.207 106.32 113.809 106.56 114.535 106.56C115.26 106.56 115.863 106.32 116.343 105.84C116.823 105.349 117.063 104.736 117.063 104C117.063 103.264 116.823 102.656 116.343 102.176C115.863 101.685 115.26 101.44 114.535 101.44C113.809 101.44 113.207 101.685 112.727 102.176C112.247 102.656 112.007 103.264 112.007 104C112.007 104.736 112.247 105.349 112.727 105.84ZM125.013 99.792C125.93 99.792 126.672 100.085 127.237 100.672C127.802 101.259 128.085 102.064 128.085 103.088V108H126.357V103.264C126.357 102.667 126.197 102.208 125.877 101.888C125.557 101.568 125.12 101.408 124.565 101.408C123.957 101.408 123.466 101.6 123.093 101.984C122.72 102.357 122.533 102.933 122.533 103.712V108H120.805V100H122.533V101.024C123.056 100.203 123.882 99.792 125.013 99.792ZM136.282 96.8H138.01V108H136.282V106.848C135.631 107.755 134.698 108.208 133.482 108.208C132.383 108.208 131.444 107.803 130.666 106.992C129.887 106.171 129.498 105.173 129.498 104C129.498 102.816 129.887 101.819 130.666 101.008C131.444 100.197 132.383 99.792 133.482 99.792C134.698 99.792 135.631 100.24 136.282 101.136V96.8ZM131.946 105.84C132.426 106.32 133.028 106.56 133.754 106.56C134.479 106.56 135.082 106.32 135.562 105.84C136.042 105.349 136.282 104.736 136.282 104C136.282 103.264 136.042 102.656 135.562 102.176C135.082 101.685 134.479 101.44 133.754 101.44C133.028 101.44 132.426 101.685 131.946 102.176C131.466 102.656 131.226 103.264 131.226 104C131.226 104.736 131.466 105.349 131.946 105.84ZM149.432 108.208C147.746 108.208 146.349 107.653 145.24 106.544C144.13 105.424 143.576 104.043 143.576 102.4C143.576 100.757 144.13 99.3813 145.24 98.272C146.349 97.152 147.746 96.592 149.432 96.592C150.445 96.592 151.378 96.832 152.232 97.312C153.096 97.792 153.768 98.4427 154.248 99.264L152.648 100.192C152.349 99.6373 151.912 99.2 151.336 98.88C150.77 98.5493 150.136 98.384 149.432 98.384C148.237 98.384 147.266 98.7627 146.52 99.52C145.784 100.277 145.416 101.237 145.416 102.4C145.416 103.563 145.784 104.523 146.52 105.28C147.266 106.037 148.237 106.416 149.432 106.416C150.136 106.416 150.776 106.256 151.352 105.936C151.928 105.605 152.36 105.163 152.648 104.608L154.248 105.52C153.778 106.341 153.112 106.997 152.248 107.488C151.394 107.968 150.456 108.208 149.432 108.208ZM159.504 108.208C158.427 108.208 157.51 107.963 156.752 107.472C156.006 106.981 155.483 106.309 155.184 105.456L156.768 104.528C157.216 105.787 158.144 106.416 159.552 106.416C160.246 106.416 160.763 106.283 161.104 106.016C161.456 105.739 161.632 105.381 161.632 104.944C161.632 104.485 161.446 104.139 161.072 103.904C160.699 103.659 160.038 103.392 159.088 103.104C158.555 102.944 158.123 102.795 157.792 102.656C157.462 102.517 157.11 102.325 156.736 102.08C156.374 101.824 156.102 101.509 155.92 101.136C155.739 100.763 155.648 100.325 155.648 99.824C155.648 98.832 156 98.048 156.704 97.472C157.408 96.8853 158.256 96.592 159.248 96.592C160.144 96.592 160.928 96.8107 161.6 97.248C162.272 97.6853 162.79 98.288 163.152 99.056L161.6 99.952C161.131 98.9067 160.347 98.384 159.248 98.384C158.715 98.384 158.288 98.512 157.968 98.768C157.648 99.0133 157.488 99.3493 157.488 99.776C157.488 100.192 157.648 100.523 157.968 100.768C158.299 101.003 158.891 101.253 159.744 101.52C160.171 101.659 160.48 101.765 160.672 101.84C160.875 101.904 161.152 102.011 161.504 102.16C161.867 102.309 162.139 102.459 162.32 102.608C162.502 102.757 162.694 102.944 162.896 103.168C163.11 103.392 163.259 103.648 163.344 103.936C163.43 104.224 163.472 104.549 163.472 104.912C163.472 105.925 163.104 106.731 162.368 107.328C161.643 107.915 160.688 108.208 159.504 108.208ZM168.426 108.208C167.349 108.208 166.431 107.963 165.674 107.472C164.927 106.981 164.405 106.309 164.106 105.456L165.69 104.528C166.138 105.787 167.066 106.416 168.474 106.416C169.167 106.416 169.685 106.283 170.026 106.016C170.378 105.739 170.554 105.381 170.554 104.944C170.554 104.485 170.367 104.139 169.994 103.904C169.621 103.659 168.959 103.392 168.01 103.104C167.477 102.944 167.045 102.795 166.714 102.656C166.383 102.517 166.031 102.325 165.658 102.08C165.295 101.824 165.023 101.509 164.842 101.136C164.661 100.763 164.57 100.325 164.57 99.824C164.57 98.832 164.922 98.048 165.626 97.472C166.33 96.8853 167.178 96.592 168.17 96.592C169.066 96.592 169.85 96.8107 170.522 97.248C171.194 97.6853 171.711 98.288 172.074 99.056L170.522 99.952C170.053 98.9067 169.269 98.384 168.17 98.384C167.637 98.384 167.21 98.512 166.89 98.768C166.57 99.0133 166.41 99.3493 166.41 99.776C166.41 100.192 166.57 100.523 166.89 100.768C167.221 101.003 167.813 101.253 168.666 101.52C169.093 101.659 169.402 101.765 169.594 101.84C169.797 101.904 170.074 102.011 170.426 102.16C170.789 102.309 171.061 102.459 171.242 102.608C171.423 102.757 171.615 102.944 171.818 103.168C172.031 103.392 172.181 103.648 172.266 103.936C172.351 104.224 172.394 104.549 172.394 104.912C172.394 105.925 172.026 106.731 171.29 107.328C170.565 107.915 169.61 108.208 168.426 108.208Z" fill="#1F1D39"/>
<defs>
<clipPath id="clip0_1907_2202">
<rect width="16" height="16" fill="white" transform="translate(173 138)"/>
</clipPath>
</defs>
</svg>
