<svg width="240" height="177" viewBox="0 0 240 177" fill="none" xmlns="http://www.w3.org/2000/svg">
<rect width="240" height="177" rx="12" fill="#EFF7E2"/>
<rect x="8" y="125" width="224" height="44" rx="11" fill="#F6FBEE"/>
<path fill-rule="evenodd" clip-rule="evenodd" d="M38 151.333H34.3333C33.597 151.333 33 150.736 33 150V142C33 141.264 33.597 140.667 34.3333 140.667H38C38.8178 140.667 39.5439 141.059 40 141.666C40.4561 141.059 41.1822 140.667 42 140.667H45.6667C46.4031 140.667 47 141.264 47 142V150C47 150.736 46.4031 151.333 45.6667 151.333H42C41.4059 151.333 40.8924 151.679 40.6495 152.18C40.5231 152.441 40.2898 152.667 40 152.667C39.7102 152.667 39.4769 152.441 39.3505 152.18C39.1076 151.679 38.5941 151.333 38 151.333ZM34 142C34 141.816 34.1492 141.667 34.3333 141.667H38C38.8284 141.667 39.5 142.338 39.5 143.167V150.833C39.0822 150.519 38.5628 150.333 38 150.333H34.3333C34.1492 150.333 34 150.184 34 150V142ZM42 141.667C41.1716 141.667 40.5 142.338 40.5 143.167V150.833C40.9178 150.519 41.4372 150.333 42 150.333H45.6667C45.8507 150.333 46 150.184 46 150V142C46 141.816 45.8507 141.667 45.6667 141.667H42Z" fill="black"/>
<path d="M56.3364 149V148.1L58.7764 145.61C59.3697 145.017 59.6664 144.503 59.6664 144.07C59.6664 143.73 59.563 143.467 59.3564 143.28C59.1564 143.087 58.8997 142.99 58.5864 142.99C57.9997 142.99 57.5664 143.28 57.2864 143.86L56.3164 143.29C56.5364 142.823 56.8464 142.47 57.2464 142.23C57.6464 141.99 58.0897 141.87 58.5764 141.87C59.1897 141.87 59.7164 142.063 60.1564 142.45C60.5964 142.837 60.8164 143.363 60.8164 144.03C60.8164 144.743 60.4197 145.503 59.6264 146.31L58.0464 147.89H60.9464V149H56.3364ZM66.8029 146.67V147.74H66.0029V149H64.8429V147.74H61.4029V146.67L63.8129 142H65.0629L62.6529 146.67H64.8429V144.85H66.0029V146.67H66.8029Z" fill="black"/>
<path d="M86 137V155" stroke="#B4D6A4" stroke-width="2" stroke-linecap="square"/>
<path d="M115.667 144.667C115.667 144.943 115.443 145.167 115.167 145.167H110.833C110.557 145.167 110.333 144.943 110.333 144.667C110.333 144.391 110.557 144.167 110.833 144.167H115.167C115.443 144.167 115.667 144.391 115.667 144.667Z" fill="black"/>
<path d="M114.333 147.333C114.333 147.609 114.109 147.833 113.833 147.833H110.833C110.557 147.833 110.333 147.609 110.333 147.333C110.333 147.057 110.557 146.833 110.833 146.833H113.833C114.109 146.833 114.333 147.057 114.333 147.333Z" fill="black"/>
<path fill-rule="evenodd" clip-rule="evenodd" d="M111.667 138.667C110.93 138.667 110.333 139.264 110.333 140H109C108.264 140 107.667 140.597 107.667 141.333V151.333C107.667 152.07 108.264 152.667 109 152.667H117C117.736 152.667 118.333 152.07 118.333 151.333V141.333C118.333 140.597 117.736 140 117 140H115.667C115.667 139.264 115.07 138.667 114.333 138.667H111.667ZM114.667 140C114.667 139.816 114.517 139.667 114.333 139.667H111.667C111.483 139.667 111.333 139.816 111.333 140V141C111.333 141.184 111.483 141.333 111.667 141.333H114.333C114.517 141.333 114.667 141.184 114.667 141V140ZM115.667 141C115.667 141.736 115.07 142.333 114.333 142.333H111.667C110.93 142.333 110.333 141.736 110.333 141H109C108.816 141 108.667 141.149 108.667 141.333V151.333C108.667 151.517 108.816 151.667 109 151.667H117C117.184 151.667 117.333 151.517 117.333 151.333V141.333C117.333 141.149 117.184 141 117 141H115.667Z" fill="black"/>
<path d="M133.427 145.36C134.114 145.74 134.457 146.307 134.457 147.06C134.457 147.7 134.234 148.207 133.787 148.58C133.341 148.947 132.747 149.13 132.007 149.13C131.267 149.13 130.671 148.947 130.217 148.58C129.771 148.207 129.547 147.7 129.547 147.06C129.547 146.7 129.637 146.373 129.817 146.08C129.997 145.78 130.251 145.54 130.577 145.36C130.051 145.013 129.787 144.52 129.787 143.88C129.787 143.24 130.001 142.747 130.427 142.4C130.854 142.047 131.381 141.87 132.007 141.87C132.627 141.87 133.151 142.047 133.577 142.4C134.011 142.747 134.227 143.24 134.227 143.88C134.227 144.52 133.961 145.013 133.427 145.36ZM132.007 142.96C131.694 142.96 131.437 143.043 131.237 143.21C131.037 143.377 130.937 143.617 130.937 143.93C130.937 144.23 131.037 144.467 131.237 144.64C131.444 144.813 131.701 144.9 132.007 144.9C132.307 144.9 132.561 144.813 132.767 144.64C132.974 144.467 133.077 144.23 133.077 143.93C133.077 143.617 132.974 143.377 132.767 143.21C132.567 143.043 132.314 142.96 132.007 142.96ZM132.007 148.04C132.394 148.04 132.707 147.947 132.947 147.76C133.187 147.567 133.307 147.297 133.307 146.95C133.307 146.603 133.187 146.337 132.947 146.15C132.707 145.957 132.394 145.86 132.007 145.86C131.614 145.86 131.297 145.957 131.057 146.15C130.817 146.337 130.697 146.603 130.697 146.95C130.697 147.297 130.817 147.567 131.057 147.76C131.297 147.947 131.614 148.04 132.007 148.04Z" fill="black"/>
<path d="M154 137V155" stroke="#B4D6A4" stroke-width="2" stroke-linecap="square"/>
<g clip-path="url(#clip0_1907_2277)">
<mask id="mask0_1907_2277" style="mask-type:luminance" maskUnits="userSpaceOnUse" x="173" y="138" width="16" height="16">
<path d="M189 138H173V154H189V138Z" fill="white"/>
</mask>
<g mask="url(#mask0_1907_2277)">
<path fill-rule="evenodd" clip-rule="evenodd" d="M177.667 145C179.047 145 180.167 143.881 180.167 142.5C180.167 141.119 179.047 140 177.667 140C176.286 140 175.167 141.119 175.167 142.5C175.167 143.881 176.286 145 177.667 145ZM177.667 144C178.495 144 179.167 143.328 179.167 142.5C179.167 141.672 178.495 141 177.667 141C176.838 141 176.167 141.672 176.167 142.5C176.167 143.328 176.838 144 177.667 144Z" fill="black"/>
<path fill-rule="evenodd" clip-rule="evenodd" d="M186.833 142.5C186.833 143.881 185.714 145 184.333 145C182.953 145 181.833 143.881 181.833 142.5C181.833 141.119 182.953 140 184.333 140C185.714 140 186.833 141.119 186.833 142.5ZM185.833 142.5C185.833 143.328 185.162 144 184.333 144C183.505 144 182.833 143.328 182.833 142.5C182.833 141.672 183.505 141 184.333 141C185.162 141 185.833 141.672 185.833 142.5Z" fill="black"/>
<path d="M182.749 147.265C183.244 147.094 183.777 147 184.333 147C185.782 147 187.08 147.636 187.968 148.647C187.973 148.653 188 148.69 188 148.778V150C188 150.184 187.851 150.333 187.667 150.333H183.31C183.257 150.701 183.119 151.042 182.915 151.333H187.667C188.403 151.333 189 150.736 189 150V148.778C189 148.489 188.91 148.205 188.719 147.987C187.65 146.769 186.082 146 184.333 146C183.505 146 182.717 146.173 182.003 146.484C181.985 146.492 181.967 146.5 181.95 146.509C182.236 146.739 182.504 146.993 182.749 147.265Z" fill="black"/>
<path fill-rule="evenodd" clip-rule="evenodd" d="M181 151.333C181.315 151.333 181.605 151.224 181.833 151.041C182.138 150.797 182.333 150.421 182.333 150V148.778C182.333 148.489 182.243 148.205 182.053 147.987C181.841 147.746 181.609 147.522 181.36 147.318C180.354 146.494 179.068 146 177.667 146C175.918 146 174.35 146.769 173.281 147.987C173.09 148.205 173 148.489 173 148.778V150C173 150.736 173.597 151.333 174.333 151.333H181ZM181.301 148.647C181.306 148.653 181.333 148.69 181.333 148.778V150C181.333 150.184 181.184 150.333 181 150.333H174.333C174.149 150.333 174 150.184 174 150V148.778C174 148.69 174.027 148.653 174.032 148.647C174.92 147.636 176.218 147 177.667 147C179.115 147 180.414 147.636 181.301 148.647Z" fill="black"/>
</g>
</g>
<path d="M202.251 144.26C202.251 144.793 202.111 145.263 201.831 145.67L199.621 149H198.301L199.901 146.65H199.781C199.054 146.65 198.457 146.43 197.991 145.99C197.531 145.543 197.301 144.967 197.301 144.26C197.301 143.553 197.531 142.98 197.991 142.54C198.457 142.093 199.054 141.87 199.781 141.87C200.507 141.87 201.101 142.093 201.561 142.54C202.021 142.98 202.251 143.553 202.251 144.26ZM198.451 144.26C198.451 144.647 198.574 144.96 198.821 145.2C199.074 145.44 199.394 145.56 199.781 145.56C200.167 145.56 200.484 145.443 200.731 145.21C200.977 144.97 201.101 144.653 201.101 144.26C201.101 143.867 200.977 143.553 200.731 143.32C200.484 143.08 200.167 142.96 199.781 142.96C199.394 142.96 199.074 143.08 198.821 143.32C198.574 143.553 198.451 143.867 198.451 144.26ZM207.7 144.26C207.7 144.793 207.56 145.263 207.28 145.67L205.07 149H203.75L205.35 146.65H205.23C204.503 146.65 203.907 146.43 203.44 145.99C202.98 145.543 202.75 144.967 202.75 144.26C202.75 143.553 202.98 142.98 203.44 142.54C203.907 142.093 204.503 141.87 205.23 141.87C205.957 141.87 206.55 142.093 207.01 142.54C207.47 142.98 207.7 143.553 207.7 144.26ZM203.9 144.26C203.9 144.647 204.023 144.96 204.27 145.2C204.523 145.44 204.843 145.56 205.23 145.56C205.617 145.56 205.933 145.443 206.18 145.21C206.427 144.97 206.55 144.653 206.55 144.26C206.55 143.867 206.427 143.553 206.18 143.32C205.933 143.08 205.617 142.96 205.23 142.96C204.843 142.96 204.523 143.08 204.27 143.32C204.023 143.553 203.9 143.867 203.9 144.26Z" fill="black"/>
<ellipse cx="42" cy="50" rx="24" ry="25" fill="white"/>
<path d="M29.84 97.8V109H28V101.016L24.592 106.648H24.368L20.96 101V109H19.12V97.8H21.104L24.48 103.4L27.872 97.8H29.84ZM35.7371 109.208C34.5638 109.208 33.5665 108.803 32.7451 107.992C31.9238 107.181 31.5131 106.184 31.5131 105C31.5131 103.816 31.9238 102.819 32.7451 102.008C33.5665 101.197 34.5638 100.792 35.7371 100.792C36.9211 100.792 37.9185 101.197 38.7291 102.008C39.5505 102.819 39.9611 103.816 39.9611 105C39.9611 106.184 39.5505 107.181 38.7291 107.992C37.9185 108.803 36.9211 109.208 35.7371 109.208ZM33.9611 106.808C34.4411 107.288 35.0331 107.528 35.7371 107.528C36.4411 107.528 37.0331 107.288 37.5131 106.808C37.9931 106.328 38.2331 105.725 38.2331 105C38.2331 104.275 37.9931 103.672 37.5131 103.192C37.0331 102.712 36.4411 102.472 35.7371 102.472C35.0331 102.472 34.4411 102.712 33.9611 103.192C33.4811 103.672 33.2411 104.275 33.2411 105C33.2411 105.725 33.4811 106.328 33.9611 106.808ZM45.8314 102.664H43.8474V106.504C43.8474 106.835 43.922 107.075 44.0714 107.224C44.2207 107.363 44.4394 107.443 44.7274 107.464C45.026 107.475 45.394 107.469 45.8314 107.448V109C44.5087 109.16 43.5594 109.048 42.9834 108.664C42.4074 108.269 42.1194 107.549 42.1194 106.504V102.664H40.6474V101H42.1194V99.272L43.8474 98.76V101H45.8314V102.664ZM49.0306 99.48C48.8173 99.6933 48.5613 99.8 48.2626 99.8C47.964 99.8 47.7026 99.6933 47.4786 99.48C47.2653 99.256 47.1586 98.9947 47.1586 98.696C47.1586 98.3973 47.2653 98.1413 47.4786 97.928C47.692 97.704 47.9533 97.592 48.2626 97.592C48.572 97.592 48.8333 97.704 49.0466 97.928C49.26 98.1413 49.3666 98.3973 49.3666 98.696C49.3666 98.9947 49.2546 99.256 49.0306 99.48ZM47.3986 109V101H49.1266V109H47.3986ZM54.909 109.208C53.7357 109.208 52.7383 108.803 51.917 107.992C51.0957 107.181 50.685 106.184 50.685 105C50.685 103.816 51.0957 102.819 51.917 102.008C52.7383 101.197 53.7357 100.792 54.909 100.792C56.093 100.792 57.0903 101.197 57.901 102.008C58.7223 102.819 59.133 103.816 59.133 105C59.133 106.184 58.7223 107.181 57.901 107.992C57.0903 108.803 56.093 109.208 54.909 109.208ZM53.133 106.808C53.613 107.288 54.205 107.528 54.909 107.528C55.613 107.528 56.205 107.288 56.685 106.808C57.165 106.328 57.405 105.725 57.405 105C57.405 104.275 57.165 103.672 56.685 103.192C56.205 102.712 55.613 102.472 54.909 102.472C54.205 102.472 53.613 102.712 53.133 103.192C52.653 103.672 52.413 104.275 52.413 105C52.413 105.725 52.653 106.328 53.133 106.808ZM64.9035 100.792C65.8208 100.792 66.5622 101.085 67.1275 101.672C67.6928 102.259 67.9755 103.064 67.9755 104.088V109H66.2475V104.264C66.2475 103.667 66.0875 103.208 65.7675 102.888C65.4475 102.568 65.0102 102.408 64.4555 102.408C63.8475 102.408 63.3568 102.6 62.9835 102.984C62.6102 103.357 62.4235 103.933 62.4235 104.712V109H60.6955V101H62.4235V102.024C62.9462 101.203 63.7728 100.792 64.9035 100.792ZM78.3481 97.8C79.8841 97.8 81.1588 98.3387 82.1721 99.416C83.1961 100.493 83.7081 101.821 83.7081 103.4C83.7081 104.968 83.1961 106.296 82.1721 107.384C81.1588 108.461 79.8841 109 78.3481 109H73.9481V97.8H78.3481ZM78.3481 107.24C79.4041 107.24 80.2628 106.877 80.9241 106.152C81.5961 105.427 81.9321 104.509 81.9321 103.4C81.9321 102.28 81.5961 101.363 80.9241 100.648C80.2628 99.9227 79.4041 99.56 78.3481 99.56H75.7881V107.24H78.3481ZM86.6336 105.736C86.7616 106.344 87.055 106.813 87.5136 107.144C87.9723 107.464 88.5323 107.624 89.1936 107.624C90.111 107.624 90.799 107.293 91.2576 106.632L92.6816 107.464C91.8923 108.627 90.7243 109.208 89.1776 109.208C87.8763 109.208 86.8256 108.813 86.0256 108.024C85.2256 107.224 84.8256 106.216 84.8256 105C84.8256 103.805 85.2203 102.808 86.0096 102.008C86.799 101.197 87.8123 100.792 89.0496 100.792C90.223 100.792 91.183 101.203 91.9296 102.024C92.687 102.845 93.0656 103.843 93.0656 105.016C93.0656 105.197 93.0443 105.437 93.0016 105.736H86.6336ZM86.6176 104.328H91.3216C91.2043 103.677 90.9323 103.187 90.5056 102.856C90.0896 102.525 89.599 102.36 89.0336 102.36C88.3936 102.36 87.8603 102.536 87.4336 102.888C87.007 103.24 86.735 103.72 86.6176 104.328ZM95.8256 103.208C95.8256 103.475 95.9696 103.688 96.2576 103.848C96.5563 103.997 96.9136 104.131 97.3296 104.248C97.7563 104.355 98.183 104.483 98.6096 104.632C99.0363 104.781 99.3936 105.037 99.6816 105.4C99.9803 105.752 100.13 106.2 100.13 106.744C100.13 107.512 99.831 108.115 99.2336 108.552C98.647 108.989 97.9056 109.208 97.0096 109.208C96.2203 109.208 95.543 109.043 94.9776 108.712C94.4123 108.381 94.0016 107.923 93.7456 107.336L95.2336 106.472C95.511 107.24 96.103 107.624 97.0096 107.624C97.9163 107.624 98.3696 107.325 98.3696 106.728C98.3696 106.472 98.2203 106.264 97.9216 106.104C97.6336 105.944 97.2763 105.811 96.8496 105.704C96.4336 105.587 96.0123 105.453 95.5856 105.304C95.159 105.155 94.7963 104.909 94.4976 104.568C94.2096 104.216 94.0656 103.773 94.0656 103.24C94.0656 102.504 94.343 101.912 94.8976 101.464C95.463 101.016 96.1616 100.792 96.9936 100.792C97.655 100.792 98.2416 100.941 98.7536 101.24C99.2763 101.528 99.6763 101.933 99.9536 102.456L98.4976 103.272C98.2203 102.664 97.719 102.36 96.9936 102.36C96.663 102.36 96.3856 102.435 96.1616 102.584C95.9376 102.723 95.8256 102.931 95.8256 103.208ZM103.187 99.48C102.974 99.6933 102.718 99.8 102.419 99.8C102.12 99.8 101.859 99.6933 101.635 99.48C101.422 99.256 101.315 98.9947 101.315 98.696C101.315 98.3973 101.422 98.1413 101.635 97.928C101.848 97.704 102.11 97.592 102.419 97.592C102.728 97.592 102.99 97.704 103.203 97.928C103.416 98.1413 103.523 98.3973 103.523 98.696C103.523 98.9947 103.411 99.256 103.187 99.48ZM101.555 109V101H103.283V109H101.555ZM111.657 101H113.353V108.632C113.353 109.848 112.953 110.781 112.153 111.432C111.353 112.083 110.383 112.408 109.241 112.408C107.396 112.408 106.132 111.763 105.449 110.472L106.937 109.608C107.353 110.429 108.132 110.84 109.273 110.84C110.02 110.84 110.601 110.643 111.017 110.248C111.444 109.864 111.657 109.325 111.657 108.632V107.656C111.007 108.584 110.079 109.048 108.873 109.048C107.743 109.048 106.788 108.648 106.009 107.848C105.231 107.037 104.841 106.061 104.841 104.92C104.841 103.779 105.231 102.808 106.009 102.008C106.788 101.197 107.743 100.792 108.873 100.792C110.079 100.792 111.007 101.256 111.657 102.184V101ZM107.289 106.712C107.78 107.192 108.388 107.432 109.113 107.432C109.839 107.432 110.441 107.192 110.921 106.712C111.412 106.232 111.657 105.635 111.657 104.92C111.657 104.205 111.412 103.608 110.921 103.128C110.441 102.648 109.839 102.408 109.113 102.408C108.388 102.408 107.78 102.648 107.289 103.128C106.809 103.608 106.569 104.205 106.569 104.92C106.569 105.635 106.809 106.232 107.289 106.712ZM119.575 100.792C120.493 100.792 121.234 101.085 121.799 101.672C122.365 102.259 122.647 103.064 122.647 104.088V109H120.919V104.264C120.919 103.667 120.759 103.208 120.439 102.888C120.119 102.568 119.682 102.408 119.127 102.408C118.519 102.408 118.029 102.6 117.655 102.984C117.282 103.357 117.095 103.933 117.095 104.712V109H115.367V101H117.095V102.024C117.618 101.203 118.445 100.792 119.575 100.792Z" fill="#1F1D39"/>
<rect x="31" y="39" width="22" height="22" rx="6" fill="#B4D6A4"/>
<path d="M36 51.5C37.7574 49.7426 39.5 48 40.5 47C41.5 46 42.5 49.5 43.5 49.5C44.5 49.5 47.5 45 47.5 45" stroke="#49982E" stroke-width="1.5" stroke-linecap="round"/>
<path d="M50.0981 55.3004L49.4511 53.309C49.1517 52.3877 47.8483 52.3877 47.549 53.309L46.9019 55.3004H44.808C43.8393 55.3004 43.4365 56.54 44.2203 57.1094L45.9142 58.3402L45.2672 60.3316C44.9678 61.2529 46.0223 62.019 46.806 61.4496L48.5 60.2188L50.194 61.4496C50.9777 62.019 52.0322 61.2529 51.7328 60.3316L51.0858 58.3402L52.7798 57.1094C53.5635 56.54 53.1607 55.3004 52.192 55.3004L50.0981 55.3004Z" fill="#49982E" stroke="white"/>
<defs>
<clipPath id="clip0_1907_2277">
<rect width="16" height="16" fill="white" transform="translate(173 138)"/>
</clipPath>
</defs>
</svg>
