<svg width="288" height="305" viewBox="0 0 288 305" fill="none" xmlns="http://www.w3.org/2000/svg">
<path d="M204.037 189.346C206.679 191.006 210.185 190.24 211.679 187.501C217.389 177.032 220.578 165.374 220.961 153.439C221.404 139.63 218.076 125.958 211.324 113.856C204.573 101.753 194.648 91.6673 182.589 84.655C170.53 77.6427 156.782 73.9625 142.787 74.0003C128.791 74.038 115.064 77.7924 103.044 84.8697C91.0246 91.9469 81.1552 102.086 74.471 114.225C67.7867 126.363 64.534 140.053 65.0538 153.86C65.5031 165.793 68.7564 177.433 74.5244 187.872C76.0332 190.603 79.5433 191.349 82.176 189.675C84.8528 187.973 85.5994 184.422 84.1062 181.623C79.4694 172.933 76.8532 163.304 76.4818 153.441C76.0382 141.658 78.8141 129.975 84.5183 119.617C90.2225 109.258 98.6449 100.605 108.902 94.5653C119.16 88.5257 130.875 85.3218 142.818 85.2895C154.762 85.2573 166.494 88.398 176.785 94.3822C187.075 100.366 195.546 108.974 201.307 119.301C207.069 129.629 209.909 141.297 209.531 153.082C209.214 162.947 206.651 172.59 202.063 181.305C200.585 184.111 201.351 187.658 204.037 189.346Z" fill="#F8EFE2"/>
<rect x="16" y="22" width="16" height="16" rx="4" fill="#5E9C5E"/>
<path d="M43.9562 25.5569C44.7522 25.5569 45.4156 25.8223 45.9463 26.353C46.4851 26.8837 46.7545 27.5431 46.7545 28.3311C46.7545 29.1111 46.4851 29.7704 45.9463 30.3092C45.4156 30.8399 44.7522 31.1052 43.9562 31.1052H42.2314V34H40.8443V25.5569H43.9562ZM43.9562 29.8026C44.3663 29.8026 44.704 29.6659 44.9694 29.3925C45.2347 29.1111 45.3674 28.7573 45.3674 28.3311C45.3674 27.9049 45.2347 27.5551 44.9694 27.2817C44.704 27.0003 44.3663 26.8596 43.9562 26.8596H42.2314V29.8026H43.9562ZM50.2968 34.1568C49.4123 34.1568 48.6604 33.8512 48.0413 33.2401C47.4221 32.629 47.1125 31.8772 47.1125 30.9846C47.1125 30.0921 47.4221 29.3402 48.0413 28.7291C48.6604 28.118 49.4123 27.8124 50.2968 27.8124C51.1893 27.8124 51.9412 28.118 52.5523 28.7291C53.1715 29.3402 53.481 30.0921 53.481 30.9846C53.481 31.8772 53.1715 32.629 52.5523 33.2401C51.9412 33.8512 51.1893 34.1568 50.2968 34.1568ZM48.958 32.3476C49.3198 32.7094 49.7661 32.8903 50.2968 32.8903C50.8275 32.8903 51.2738 32.7094 51.6356 32.3476C51.9975 31.9857 52.1784 31.5314 52.1784 30.9846C52.1784 30.4378 51.9975 29.9835 51.6356 29.6217C51.2738 29.2598 50.8275 29.0789 50.2968 29.0789C49.7661 29.0789 49.3198 29.2598 48.958 29.6217C48.5961 29.9835 48.4152 30.4378 48.4152 30.9846C48.4152 31.5314 48.5961 31.9857 48.958 32.3476ZM55.8892 26.8234C55.7284 26.9842 55.5354 27.0646 55.3102 27.0646C55.0851 27.0646 54.8881 26.9842 54.7192 26.8234C54.5584 26.6545 54.478 26.4575 54.478 26.2324C54.478 26.0072 54.5584 25.8142 54.7192 25.6534C54.88 25.4846 55.077 25.4001 55.3102 25.4001C55.5434 25.4001 55.7404 25.4846 55.9013 25.6534C56.0621 25.8142 56.1425 26.0072 56.1425 26.2324C56.1425 26.4575 56.0581 26.6545 55.8892 26.8234ZM54.6589 34V27.9692H55.9616V34H54.6589ZM60.6462 27.8124C61.3378 27.8124 61.8966 28.0336 62.3228 28.4758C62.749 28.9181 62.9621 29.5252 62.9621 30.2971V34H61.6594V30.4298C61.6594 29.9795 61.5388 29.6337 61.2976 29.3925C61.0563 29.1513 60.7267 29.0306 60.3085 29.0306C59.8502 29.0306 59.4803 29.1754 59.1989 29.4649C58.9174 29.7463 58.7767 30.1805 58.7767 30.7675V34H57.4741V27.9692H58.7767V28.7412C59.1707 28.122 59.7939 27.8124 60.6462 27.8124ZM67.7299 29.2236H66.2342V32.1184C66.2342 32.3677 66.2905 32.5486 66.4031 32.6612C66.5157 32.7657 66.6805 32.826 66.8976 32.8421C67.1228 32.8501 67.4002 32.8461 67.7299 32.83V34C66.7328 34.1206 66.0171 34.0362 65.5829 33.7467C65.1487 33.4492 64.9316 32.9064 64.9316 32.1184V29.2236H63.8219V27.9692H64.9316V26.6666L66.2342 26.2806V27.9692H67.7299V29.2236ZM75.1819 25.5569C75.978 25.5569 76.6414 25.8223 77.1721 26.353C77.7108 26.8837 77.9802 27.5431 77.9802 28.3311C77.9802 29.1111 77.7108 29.7704 77.1721 30.3092C76.6414 30.8399 75.978 31.1052 75.1819 31.1052H73.4571V34H72.07V25.5569H75.1819ZM75.1819 29.8026C75.592 29.8026 75.9297 29.6659 76.1951 29.3925C76.4604 29.1111 76.5931 28.7573 76.5931 28.3311C76.5931 27.9049 76.4604 27.5551 76.1951 27.2817C75.9297 27.0003 75.592 26.8596 75.1819 26.8596H73.4571V29.8026H75.1819ZM80.2849 28.9824C80.6146 28.2346 81.2337 27.8607 82.1424 27.8607V29.2719C81.6438 29.2397 81.2096 29.3603 80.8397 29.6337C80.4698 29.8991 80.2849 30.3413 80.2849 30.9605V34H78.9822V27.9692H80.2849V28.9824ZM85.6687 34.1568C84.7841 34.1568 84.0323 33.8512 83.4132 33.2401C82.794 32.629 82.4844 31.8772 82.4844 30.9846C82.4844 30.0921 82.794 29.3402 83.4132 28.7291C84.0323 28.118 84.7841 27.8124 85.6687 27.8124C86.5612 27.8124 87.313 28.118 87.9242 28.7291C88.5433 29.3402 88.8529 30.0921 88.8529 30.9846C88.8529 31.8772 88.5433 32.629 87.9242 33.2401C87.313 33.8512 86.5612 34.1568 85.6687 34.1568ZM84.3298 32.3476C84.6917 32.7094 85.138 32.8903 85.6687 32.8903C86.1994 32.8903 86.6456 32.7094 87.0075 32.3476C87.3693 31.9857 87.5503 31.5314 87.5503 30.9846C87.5503 30.4378 87.3693 29.9835 87.0075 29.6217C86.6456 29.2598 86.1994 29.0789 85.6687 29.0789C85.138 29.0789 84.6917 29.2598 84.3298 29.6217C83.968 29.9835 83.7871 30.4378 83.7871 30.9846C83.7871 31.5314 83.968 31.9857 84.3298 32.3476ZM94.8313 27.9692H96.1098V33.7226C96.1098 34.6393 95.8083 35.3429 95.2052 35.8334C94.6021 36.3239 93.8704 36.5691 93.01 36.5691C91.6189 36.5691 90.666 36.0826 90.1514 35.1097L91.2731 34.4583C91.5867 35.0775 92.1737 35.3871 93.0341 35.3871C93.597 35.3871 94.0352 35.2383 94.3488 34.9408C94.6705 34.6513 94.8313 34.2453 94.8313 33.7226V32.9868C94.3408 33.6864 93.6412 34.0362 92.7326 34.0362C91.8802 34.0362 91.1606 33.7346 90.5736 33.1316C89.9866 32.5205 89.6931 31.7847 89.6931 30.9243C89.6931 30.0639 89.9866 29.3322 90.5736 28.7291C91.1606 28.118 91.8802 27.8124 92.7326 27.8124C93.6412 27.8124 94.3408 28.1622 94.8313 28.8618V27.9692ZM91.5385 32.2752C91.9084 32.637 92.3667 32.818 92.9135 32.818C93.4603 32.818 93.9146 32.637 94.2765 32.2752C94.6463 31.9134 94.8313 31.4631 94.8313 30.9243C94.8313 30.3856 94.6463 29.9353 94.2765 29.5734C93.9146 29.2116 93.4603 29.0306 92.9135 29.0306C92.3667 29.0306 91.9084 29.2116 91.5385 29.5734C91.1766 29.9353 90.9957 30.3856 90.9957 30.9243C90.9957 31.4631 91.1766 31.9134 91.5385 32.2752ZM98.9308 28.9824C99.2605 28.2346 99.8796 27.8607 100.788 27.8607V29.2719C100.29 29.2397 99.8555 29.3603 99.4856 29.6337C99.1157 29.8991 98.9308 30.3413 98.9308 30.9605V34H97.6281V27.9692H98.9308V28.9824ZM102.493 31.5394C102.59 31.9978 102.811 32.3516 103.157 32.6009C103.502 32.8421 103.925 32.9627 104.423 32.9627C105.115 32.9627 105.633 32.7134 105.979 32.2149L107.053 32.8421C106.458 33.7186 105.577 34.1568 104.411 34.1568C103.43 34.1568 102.638 33.8593 102.035 33.2642C101.432 32.6612 101.13 31.9013 101.13 30.9846C101.13 30.084 101.428 29.3322 102.023 28.7291C102.618 28.118 103.382 27.8124 104.315 27.8124C105.199 27.8124 105.923 28.122 106.486 28.7412C107.057 29.3603 107.342 30.1122 107.342 30.9967C107.342 31.1334 107.326 31.3143 107.294 31.5394H102.493ZM102.481 30.478H106.027C105.939 29.9875 105.734 29.6176 105.412 29.3684C105.099 29.1191 104.729 28.9945 104.303 28.9945C103.82 28.9945 103.418 29.1271 103.096 29.3925C102.775 29.6578 102.57 30.0197 102.481 30.478ZM109.423 29.6337C109.423 29.8347 109.531 29.9956 109.748 30.1162C109.973 30.2288 110.243 30.3293 110.556 30.4177C110.878 30.4981 111.2 30.5946 111.521 30.7072C111.843 30.8198 112.112 31.0128 112.329 31.2862C112.555 31.5515 112.667 31.8892 112.667 32.2993C112.667 32.8783 112.442 33.3326 111.992 33.6623C111.549 33.992 110.991 34.1568 110.315 34.1568C109.72 34.1568 109.21 34.0322 108.783 33.7829C108.357 33.5336 108.048 33.1879 107.855 32.7456L108.976 32.0943C109.185 32.6732 109.632 32.9627 110.315 32.9627C110.999 32.9627 111.34 32.7376 111.34 32.2873C111.34 32.0943 111.228 31.9375 111.003 31.8169C110.786 31.6962 110.516 31.5957 110.195 31.5153C109.881 31.4269 109.563 31.3264 109.242 31.2138C108.92 31.1012 108.647 30.9163 108.422 30.659C108.204 30.3936 108.096 30.0599 108.096 29.6578C108.096 29.103 108.305 28.6567 108.723 28.319C109.149 27.9813 109.676 27.8124 110.303 27.8124C110.802 27.8124 111.244 27.925 111.63 28.1502C112.024 28.3673 112.325 28.6728 112.535 29.0668L111.437 29.682C111.228 29.2236 110.85 28.9945 110.303 28.9945C110.054 28.9945 109.845 29.0507 109.676 29.1633C109.507 29.2679 109.423 29.4247 109.423 29.6337ZM114.617 29.6337C114.617 29.8347 114.726 29.9956 114.943 30.1162C115.168 30.2288 115.437 30.3293 115.751 30.4177C116.073 30.4981 116.394 30.5946 116.716 30.7072C117.037 30.8198 117.307 31.0128 117.524 31.2862C117.749 31.5515 117.862 31.8892 117.862 32.2993C117.862 32.8783 117.637 33.3326 117.186 33.6623C116.744 33.992 116.185 34.1568 115.51 34.1568C114.915 34.1568 114.404 34.0322 113.978 33.7829C113.552 33.5336 113.242 33.1879 113.049 32.7456L114.171 32.0943C114.38 32.6732 114.826 32.9627 115.51 32.9627C116.193 32.9627 116.535 32.7376 116.535 32.2873C116.535 32.0943 116.422 31.9375 116.197 31.8169C115.98 31.6962 115.711 31.5957 115.389 31.5153C115.075 31.4269 114.758 31.3264 114.436 31.2138C114.115 31.1012 113.841 30.9163 113.616 30.659C113.399 30.3936 113.29 30.0599 113.29 29.6578C113.29 29.103 113.499 28.6567 113.918 28.319C114.344 27.9813 114.87 27.8124 115.498 27.8124C115.996 27.8124 116.438 27.925 116.824 28.1502C117.218 28.3673 117.52 28.6728 117.729 29.0668L116.631 29.682C116.422 29.2236 116.044 28.9945 115.498 28.9945C115.248 28.9945 115.039 29.0507 114.87 29.1633C114.702 29.2679 114.617 29.4247 114.617 29.6337Z" fill="#42404C"/>
<rect x="181" y="16" width="89" height="28" rx="4" fill="#EFF1F3"/>
<path d="M201.926 25.5569V34H200.538V27.9813L197.969 32.227H197.8L195.231 27.9692V34H193.844V25.5569H195.34L197.885 29.7785L200.442 25.5569H201.926ZM206.371 34.1568C205.487 34.1568 204.735 33.8512 204.116 33.2401C203.496 32.629 203.187 31.8772 203.187 30.9846C203.187 30.0921 203.496 29.3402 204.116 28.7291C204.735 28.118 205.487 27.8124 206.371 27.8124C207.264 27.8124 208.015 28.118 208.627 28.7291C209.246 29.3402 209.555 30.0921 209.555 30.9846C209.555 31.8772 209.246 32.629 208.627 33.2401C208.015 33.8512 207.264 34.1568 206.371 34.1568ZM205.032 32.3476C205.394 32.7094 205.84 32.8903 206.371 32.8903C206.902 32.8903 207.348 32.7094 207.71 32.3476C208.072 31.9857 208.253 31.5314 208.253 30.9846C208.253 30.4378 208.072 29.9835 207.71 29.6217C207.348 29.2598 206.902 29.0789 206.371 29.0789C205.84 29.0789 205.394 29.2598 205.032 29.6217C204.67 29.9835 204.489 30.4378 204.489 30.9846C204.489 31.5314 204.67 31.9857 205.032 32.3476ZM213.905 27.8124C214.597 27.8124 215.156 28.0336 215.582 28.4758C216.008 28.9181 216.221 29.5252 216.221 30.2971V34H214.919V30.4298C214.919 29.9795 214.798 29.6337 214.557 29.3925C214.315 29.1513 213.986 29.0306 213.568 29.0306C213.109 29.0306 212.739 29.1754 212.458 29.4649C212.177 29.7463 212.036 30.1805 212.036 30.7675V34H210.733V27.9692H212.036V28.7412C212.43 28.122 213.053 27.8124 213.905 27.8124ZM220.989 29.2236H219.493V32.1184C219.493 32.3677 219.55 32.5486 219.662 32.6612C219.775 32.7657 219.94 32.826 220.157 32.8421C220.382 32.8501 220.659 32.8461 220.989 32.83V34C219.992 34.1206 219.276 34.0362 218.842 33.7467C218.408 33.4492 218.191 32.9064 218.191 32.1184V29.2236H217.081V27.9692H218.191V26.6666L219.493 26.2806V27.9692H220.989V29.2236ZM225.343 27.8124C226.034 27.8124 226.593 28.0336 227.019 28.4758C227.445 28.9181 227.658 29.5252 227.658 30.2971V34H226.356V30.4298C226.356 29.9795 226.235 29.6337 225.994 29.3925C225.753 29.1513 225.423 29.0306 225.005 29.0306C224.547 29.0306 224.177 29.1754 223.895 29.4649C223.614 29.7463 223.473 30.1805 223.473 30.7675V34H222.17V25.5569H223.473V28.7412C223.867 28.122 224.49 27.8124 225.343 27.8124ZM229.061 34V25.1951H230.364V34H229.061ZM235.941 27.9692H237.328L235.012 34.193C234.433 35.7529 233.452 36.4927 232.069 36.4123V35.1941C232.479 35.2182 232.809 35.1298 233.058 34.9287C233.308 34.7358 233.513 34.4302 233.673 34.0121L233.734 33.8914L231.177 27.9692H232.6L234.397 32.3476L235.941 27.9692Z" fill="#424252"/>
<path d="M248 27.75C248 27.75 252 32.25 253 32.25C254 32.25 258 27.75 258 27.75" stroke="#82888F" stroke-width="1.5" stroke-linecap="round"/>
<path d="M190.182 97.0378C192.263 94.6567 192.008 91.0147 189.456 89.1466C175.992 79.2913 159.62 73.9483 142.756 74.0004C123.96 74.0584 105.818 80.8146 91.6661 93.0262C77.5145 105.238 68.3057 122.083 65.7337 140.463C63.4217 156.986 66.6123 173.749 74.7392 188.258C76.2636 190.98 79.7776 191.706 82.4004 190.017C85.0674 188.3 85.7937 184.745 84.2843 181.955C77.6914 169.769 75.1335 155.79 77.062 142.008C79.2569 126.323 87.1156 111.947 99.1924 101.526C111.269 91.1048 126.752 85.3392 142.792 85.2896C156.948 85.2459 170.698 89.657 182.08 97.8059C184.605 99.6143 188.137 99.3763 190.182 97.0378Z" fill="#5E9C5E"/>
<path d="M156 174C156 180.627 150.627 186 144 186C137.373 186 132 180.627 132 174C132 167.373 137.373 162 144 162C150.627 162 156 167.373 156 174ZM136.61 174C136.61 178.081 139.919 181.39 144 181.39C148.081 181.39 151.39 178.081 151.39 174C151.39 169.919 148.081 166.61 144 166.61C139.919 166.61 136.61 169.919 136.61 174Z" fill="#FF90E8"/>
<path d="M125.594 94.7516L127.509 100.259" stroke="#D9D9D9" stroke-linecap="square"/>
<path d="M144.5 92.5V97.5" stroke="#D9D9D9" stroke-linecap="square"/>
<path d="M164 95L161.5 99.5" stroke="#D9D9D9" stroke-linecap="square"/>
<path d="M180.5 103.5L177.5 107.5" stroke="#D9D9D9" stroke-linecap="square"/>
<path d="M194 117L189.5 120.5" stroke="#D9D9D9" stroke-linecap="square"/>
<path d="M203 133.5L198 136" stroke="#D9D9D9" stroke-linecap="square"/>
<path d="M205.5 152.5H200.5" stroke="#D9D9D9" stroke-linecap="square"/>
<path d="M202 171L197.5 169.5" stroke="#D9D9D9" stroke-linecap="square"/>
<path d="M195 187.5C194.6 187.5 191.833 185.167 190.5 184" stroke="#D9D9D9" stroke-linecap="square"/>
<path d="M94 187L98.5 184.5" stroke="#D9D9D9" stroke-linecap="square"/>
<path d="M85.5 171L91 169" stroke="#D9D9D9" stroke-linecap="square"/>
<path d="M83.5 152.5H89" stroke="#D9D9D9" stroke-linecap="square"/>
<path d="M86 134L92 135" stroke="#D9D9D9" stroke-linecap="square"/>
<path d="M95 117L99.5 120.5" stroke="#D9D9D9" stroke-linecap="square"/>
<path d="M108.5 103.5L112 108" stroke="#D9D9D9" stroke-linecap="square"/>
<path d="M176.49 118.256L157.849 164.83L145.407 157.632L176.49 118.256Z" fill="url(#paint0_linear_1907_2353)"/>
<path d="M82.728 225.9L78.264 233.406V238.5H76.59V233.388L72.144 225.9H74.016L77.436 231.804L80.856 225.9H82.728ZM89.8543 237.366C88.9303 238.278 87.8083 238.734 86.4883 238.734C85.1683 238.734 84.0463 238.278 83.1223 237.366C82.2103 236.454 81.7543 235.332 81.7543 234C81.7543 232.668 82.2103 231.546 83.1223 230.634C84.0463 229.722 85.1683 229.266 86.4883 229.266C87.8083 229.266 88.9303 229.722 89.8543 230.634C90.7783 231.546 91.2403 232.668 91.2403 234C91.2403 235.332 90.7783 236.454 89.8543 237.366ZM86.4883 237.204C87.3883 237.204 88.1443 236.898 88.7563 236.286C89.3683 235.674 89.6743 234.912 89.6743 234C89.6743 233.088 89.3683 232.326 88.7563 231.714C88.1443 231.102 87.3883 230.796 86.4883 230.796C85.6003 230.796 84.8503 231.102 84.2383 231.714C83.6263 232.326 83.3203 233.088 83.3203 234C83.3203 234.912 83.6263 235.674 84.2383 236.286C84.8503 236.898 85.6003 237.204 86.4883 237.204ZM99.2964 229.5H100.862V238.5H99.2964V237.204C98.6604 238.224 97.6884 238.734 96.3804 238.734C95.3244 238.734 94.4784 238.404 93.8424 237.744C93.2064 237.072 92.8884 236.166 92.8884 235.026V229.5H94.4544V234.936C94.4544 235.668 94.6524 236.238 95.0484 236.646C95.4444 237.042 95.9904 237.24 96.6864 237.24C97.4664 237.24 98.0964 237 98.5764 236.52C99.0564 236.028 99.2964 235.278 99.2964 234.27V229.5ZM104.813 231.012C105.329 229.896 106.265 229.338 107.621 229.338V230.976C106.853 230.94 106.193 231.144 105.641 231.588C105.089 232.032 104.813 232.746 104.813 233.73V238.5H103.247V229.5H104.813V231.012ZM118.387 225.9C119.551 225.9 120.517 226.29 121.285 227.07C122.065 227.838 122.455 228.798 122.455 229.95C122.455 231.09 122.065 232.05 121.285 232.83C120.517 233.61 119.551 234 118.387 234H115.489V238.5H113.815V225.9H118.387ZM118.387 232.434C119.083 232.434 119.659 232.2 120.115 231.732C120.571 231.252 120.799 230.658 120.799 229.95C120.799 229.23 120.571 228.636 120.115 228.168C119.659 227.7 119.083 227.466 118.387 227.466H115.489V232.434H118.387ZM131.18 237.366C130.256 238.278 129.134 238.734 127.814 238.734C126.494 238.734 125.372 238.278 124.448 237.366C123.536 236.454 123.08 235.332 123.08 234C123.08 232.668 123.536 231.546 124.448 230.634C125.372 229.722 126.494 229.266 127.814 229.266C129.134 229.266 130.256 229.722 131.18 230.634C132.104 231.546 132.566 232.668 132.566 234C132.566 235.332 132.104 236.454 131.18 237.366ZM127.814 237.204C128.714 237.204 129.47 236.898 130.082 236.286C130.694 235.674 131 234.912 131 234C131 233.088 130.694 232.326 130.082 231.714C129.47 231.102 128.714 230.796 127.814 230.796C126.926 230.796 126.176 231.102 125.564 231.714C124.952 232.326 124.646 233.088 124.646 234C124.646 234.912 124.952 235.674 125.564 236.286C126.176 236.898 126.926 237.204 127.814 237.204ZM135.205 227.862C134.905 227.862 134.653 227.76 134.449 227.556C134.245 227.352 134.143 227.106 134.143 226.818C134.143 226.53 134.245 226.284 134.449 226.08C134.653 225.864 134.905 225.756 135.205 225.756C135.493 225.756 135.739 225.864 135.943 226.08C136.147 226.284 136.249 226.53 136.249 226.818C136.249 227.106 136.147 227.352 135.943 227.556C135.739 227.76 135.493 227.862 135.205 227.862ZM134.413 238.5V229.5H135.979V238.5H134.413ZM142.85 229.266C143.906 229.266 144.752 229.602 145.388 230.274C146.024 230.934 146.342 231.834 146.342 232.974V238.5H144.776V233.064C144.776 232.332 144.578 231.768 144.182 231.372C143.786 230.964 143.24 230.76 142.544 230.76C141.764 230.76 141.134 231.006 140.654 231.498C140.174 231.978 139.934 232.722 139.934 233.73V238.5H138.368V229.5H139.934V230.796C140.57 229.776 141.542 229.266 142.85 229.266ZM153.424 231.012H151.03V235.89C151.03 236.334 151.114 236.652 151.282 236.844C151.462 237.024 151.732 237.12 152.092 237.132C152.452 237.132 152.896 237.12 153.424 237.096V238.5C152.056 238.68 151.054 238.572 150.418 238.176C149.782 237.768 149.464 237.006 149.464 235.89V231.012H147.682V229.5H149.464V227.448L151.03 226.98V229.5H153.424V231.012ZM156.321 231.624C155.997 231.624 155.721 231.51 155.493 231.282C155.265 231.054 155.151 230.778 155.151 230.454C155.151 230.13 155.265 229.854 155.493 229.626C155.721 229.398 155.997 229.284 156.321 229.284C156.657 229.284 156.933 229.398 157.149 229.626C157.377 229.854 157.491 230.13 157.491 230.454C157.491 230.778 157.377 231.054 157.149 231.282C156.933 231.51 156.657 231.624 156.321 231.624ZM156.321 238.698C155.997 238.698 155.721 238.584 155.493 238.356C155.265 238.128 155.151 237.852 155.151 237.528C155.151 237.204 155.265 236.928 155.493 236.7C155.721 236.472 155.997 236.358 156.321 236.358C156.657 236.358 156.933 236.472 157.149 236.7C157.377 236.928 157.491 237.204 157.491 237.528C157.491 237.852 157.377 238.128 157.149 238.356C156.933 238.584 156.657 238.698 156.321 238.698Z" fill="#83868E"/>
<path d="M173.76 231.72C175.053 232.493 175.7 233.62 175.7 235.1C175.7 236.393 175.247 237.413 174.34 238.16C173.447 238.907 172.227 239.28 170.68 239.28C169.12 239.28 167.893 238.907 167 238.16C166.107 237.413 165.66 236.393 165.66 235.1C165.66 233.62 166.3 232.493 167.58 231.72C166.607 231.013 166.12 230.047 166.12 228.82C166.12 227.527 166.553 226.52 167.42 225.8C168.3 225.08 169.387 224.72 170.68 224.72C171.973 224.72 173.053 225.08 173.92 225.8C174.787 226.52 175.22 227.527 175.22 228.82C175.22 230.06 174.733 231.027 173.76 231.72ZM171.98 227.76C171.647 227.467 171.213 227.32 170.68 227.32C170.147 227.32 169.713 227.467 169.38 227.76C169.047 228.053 168.88 228.453 168.88 228.96C168.88 229.467 169.047 229.873 169.38 230.18C169.713 230.473 170.147 230.62 170.68 230.62C171.213 230.62 171.647 230.473 171.98 230.18C172.313 229.873 172.48 229.467 172.48 228.96C172.48 228.453 172.313 228.053 171.98 227.76ZM169.02 236.18C169.447 236.513 170 236.68 170.68 236.68C171.36 236.68 171.907 236.513 172.32 236.18C172.747 235.833 172.96 235.353 172.96 234.74C172.96 234.14 172.747 233.673 172.32 233.34C171.907 232.993 171.36 232.82 170.68 232.82C170 232.82 169.447 232.993 169.02 233.34C168.607 233.673 168.4 234.14 168.4 234.74C168.4 235.353 168.607 235.833 169.02 236.18ZM180.247 238.76C179.914 239.093 179.514 239.26 179.047 239.26C178.581 239.26 178.181 239.093 177.847 238.76C177.514 238.427 177.347 238.027 177.347 237.56C177.347 237.093 177.514 236.693 177.847 236.36C178.181 236.027 178.581 235.86 179.047 235.86C179.514 235.86 179.914 236.027 180.247 236.36C180.581 236.693 180.747 237.093 180.747 237.56C180.747 238.027 180.581 238.427 180.247 238.76ZM190.913 229.58C190.913 230.66 190.633 231.607 190.073 232.42H190.093L185.733 239H182.573L185.693 234.44C184.239 234.413 183.053 233.953 182.133 233.06C181.226 232.153 180.773 230.993 180.773 229.58C180.773 228.153 181.239 226.987 182.173 226.08C183.119 225.173 184.339 224.72 185.833 224.72C187.339 224.72 188.559 225.173 189.493 226.08C190.439 226.973 190.913 228.14 190.913 229.58ZM183.513 229.58C183.513 230.273 183.733 230.827 184.173 231.24C184.626 231.653 185.179 231.86 185.833 231.86C186.513 231.86 187.073 231.653 187.513 231.24C187.953 230.827 188.173 230.273 188.173 229.58C188.173 228.887 187.953 228.34 187.513 227.94C187.073 227.527 186.513 227.32 185.833 227.32C185.179 227.32 184.626 227.527 184.173 227.94C183.733 228.353 183.513 228.9 183.513 229.58ZM196.677 229.54C198.13 229.58 199.31 230.053 200.217 230.96C201.123 231.853 201.577 233 201.577 234.4C201.577 235.827 201.103 237 200.157 237.92C199.21 238.827 197.99 239.28 196.497 239.28C195.003 239.28 193.783 238.827 192.837 237.92C191.903 237.013 191.437 235.84 191.437 234.4C191.437 233.333 191.71 232.393 192.257 231.58L196.617 225H199.777L196.677 229.54ZM194.837 236.06C195.277 236.473 195.83 236.68 196.497 236.68C197.163 236.68 197.717 236.473 198.157 236.06C198.61 235.647 198.837 235.093 198.837 234.4C198.837 233.72 198.61 233.173 198.157 232.76C197.717 232.347 197.163 232.14 196.497 232.14C195.83 232.14 195.277 232.347 194.837 232.76C194.397 233.16 194.177 233.707 194.177 234.4C194.177 235.093 194.397 235.647 194.837 236.06ZM207.731 229.54C209.185 229.58 210.365 230.053 211.271 230.96C212.178 231.853 212.631 233 212.631 234.4C212.631 235.827 212.158 237 211.211 237.92C210.265 238.827 209.045 239.28 207.551 239.28C206.058 239.28 204.838 238.827 203.891 237.92C202.958 237.013 202.491 235.84 202.491 234.4C202.491 233.333 202.765 232.393 203.311 231.58L207.671 225H210.831L207.731 229.54ZM205.891 236.06C206.331 236.473 206.885 236.68 207.551 236.68C208.218 236.68 208.771 236.473 209.211 236.06C209.665 235.647 209.891 235.093 209.891 234.4C209.891 233.72 209.665 233.173 209.211 232.76C208.771 232.347 208.218 232.14 207.551 232.14C206.885 232.14 206.331 232.347 205.891 232.76C205.451 233.16 205.231 233.707 205.231 234.4C205.231 235.093 205.451 235.647 205.891 236.06Z" fill="black"/>
<defs>
<linearGradient id="paint0_linear_1907_2353" x1="176.49" y1="118.256" x2="151.628" y2="161.231" gradientUnits="userSpaceOnUse">
<stop stop-color="#FF90E8"/>
<stop offset="1" stop-color="#FF90E8" stop-opacity="0"/>
</linearGradient>
</defs>
</svg>
