<svg width="240" height="177" viewBox="0 0 240 177" fill="none" xmlns="http://www.w3.org/2000/svg">
<rect width="240" height="177" rx="12" fill="#F8EFE2"/>
<rect x="8" y="125" width="224" height="44" rx="11" fill="#FAF5EC"/>
<path fill-rule="evenodd" clip-rule="evenodd" d="M38 151.333H34.3333C33.597 151.333 33 150.736 33 150V142C33 141.264 33.597 140.667 34.3333 140.667H38C38.8178 140.667 39.5439 141.059 40 141.666C40.4561 141.059 41.1822 140.667 42 140.667H45.6667C46.4031 140.667 47 141.264 47 142V150C47 150.736 46.4031 151.333 45.6667 151.333H42C41.4059 151.333 40.8924 151.679 40.6495 152.18C40.5231 152.441 40.2898 152.667 40 152.667C39.7102 152.667 39.4769 152.441 39.3505 152.18C39.1076 151.679 38.5941 151.333 38 151.333ZM34 142C34 141.816 34.1492 141.667 34.3333 141.667H38C38.8284 141.667 39.5 142.338 39.5 143.167V150.833C39.0822 150.519 38.5628 150.333 38 150.333H34.3333C34.1492 150.333 34 150.184 34 150V142ZM42 141.667C41.1716 141.667 40.5 142.338 40.5 143.167V150.833C40.9178 150.519 41.4372 150.333 42 150.333H45.6667C45.8507 150.333 46 150.184 46 150V142C46 141.816 45.8507 141.667 45.6667 141.667H42Z" fill="black"/>
<path d="M56.3364 149V148.1L58.7764 145.61C59.3697 145.017 59.6664 144.503 59.6664 144.07C59.6664 143.73 59.563 143.467 59.3564 143.28C59.1564 143.087 58.8997 142.99 58.5864 142.99C57.9997 142.99 57.5664 143.28 57.2864 143.86L56.3164 143.29C56.5364 142.823 56.8464 142.47 57.2464 142.23C57.6464 141.99 58.0897 141.87 58.5764 141.87C59.1897 141.87 59.7164 142.063 60.1564 142.45C60.5964 142.837 60.8164 143.363 60.8164 144.03C60.8164 144.743 60.4197 145.503 59.6264 146.31L58.0464 147.89H60.9464V149H56.3364ZM66.8029 146.67V147.74H66.0029V149H64.8429V147.74H61.4029V146.67L63.8129 142H65.0629L62.6529 146.67H64.8429V144.85H66.0029V146.67H66.8029Z" fill="black"/>
<path d="M86 137V155" stroke="#F8EFE2" stroke-width="2" stroke-linecap="square"/>
<path d="M115.667 144.667C115.667 144.943 115.443 145.167 115.167 145.167H110.833C110.557 145.167 110.333 144.943 110.333 144.667C110.333 144.391 110.557 144.167 110.833 144.167H115.167C115.443 144.167 115.667 144.391 115.667 144.667Z" fill="black"/>
<path d="M114.333 147.333C114.333 147.609 114.109 147.833 113.833 147.833H110.833C110.557 147.833 110.333 147.609 110.333 147.333C110.333 147.057 110.557 146.833 110.833 146.833H113.833C114.109 146.833 114.333 147.057 114.333 147.333Z" fill="black"/>
<path fill-rule="evenodd" clip-rule="evenodd" d="M111.667 138.667C110.93 138.667 110.333 139.264 110.333 140H109C108.264 140 107.667 140.597 107.667 141.333V151.333C107.667 152.07 108.264 152.667 109 152.667H117C117.736 152.667 118.333 152.07 118.333 151.333V141.333C118.333 140.597 117.736 140 117 140H115.667C115.667 139.264 115.07 138.667 114.333 138.667H111.667ZM114.667 140C114.667 139.816 114.517 139.667 114.333 139.667H111.667C111.483 139.667 111.333 139.816 111.333 140V141C111.333 141.184 111.483 141.333 111.667 141.333H114.333C114.517 141.333 114.667 141.184 114.667 141V140ZM115.667 141C115.667 141.736 115.07 142.333 114.333 142.333H111.667C110.93 142.333 110.333 141.736 110.333 141H109C108.816 141 108.667 141.149 108.667 141.333V151.333C108.667 151.517 108.816 151.667 109 151.667H117C117.184 151.667 117.333 151.517 117.333 151.333V141.333C117.333 141.149 117.184 141 117 141H115.667Z" fill="black"/>
<path d="M133.427 145.36C134.114 145.74 134.457 146.307 134.457 147.06C134.457 147.7 134.234 148.207 133.787 148.58C133.341 148.947 132.747 149.13 132.007 149.13C131.267 149.13 130.671 148.947 130.217 148.58C129.771 148.207 129.547 147.7 129.547 147.06C129.547 146.7 129.637 146.373 129.817 146.08C129.997 145.78 130.251 145.54 130.577 145.36C130.051 145.013 129.787 144.52 129.787 143.88C129.787 143.24 130.001 142.747 130.427 142.4C130.854 142.047 131.381 141.87 132.007 141.87C132.627 141.87 133.151 142.047 133.577 142.4C134.011 142.747 134.227 143.24 134.227 143.88C134.227 144.52 133.961 145.013 133.427 145.36ZM132.007 142.96C131.694 142.96 131.437 143.043 131.237 143.21C131.037 143.377 130.937 143.617 130.937 143.93C130.937 144.23 131.037 144.467 131.237 144.64C131.444 144.813 131.701 144.9 132.007 144.9C132.307 144.9 132.561 144.813 132.767 144.64C132.974 144.467 133.077 144.23 133.077 143.93C133.077 143.617 132.974 143.377 132.767 143.21C132.567 143.043 132.314 142.96 132.007 142.96ZM132.007 148.04C132.394 148.04 132.707 147.947 132.947 147.76C133.187 147.567 133.307 147.297 133.307 146.95C133.307 146.603 133.187 146.337 132.947 146.15C132.707 145.957 132.394 145.86 132.007 145.86C131.614 145.86 131.297 145.957 131.057 146.15C130.817 146.337 130.697 146.603 130.697 146.95C130.697 147.297 130.817 147.567 131.057 147.76C131.297 147.947 131.614 148.04 132.007 148.04Z" fill="black"/>
<path d="M154 137V155" stroke="#F8EFE2" stroke-width="2" stroke-linecap="square"/>
<g clip-path="url(#clip0_1907_2238)">
<mask id="mask0_1907_2238" style="mask-type:luminance" maskUnits="userSpaceOnUse" x="173" y="138" width="16" height="16">
<path d="M189 138H173V154H189V138Z" fill="white"/>
</mask>
<g mask="url(#mask0_1907_2238)">
<path fill-rule="evenodd" clip-rule="evenodd" d="M177.667 145C179.047 145 180.167 143.881 180.167 142.5C180.167 141.119 179.047 140 177.667 140C176.286 140 175.167 141.119 175.167 142.5C175.167 143.881 176.286 145 177.667 145ZM177.667 144C178.495 144 179.167 143.328 179.167 142.5C179.167 141.672 178.495 141 177.667 141C176.838 141 176.167 141.672 176.167 142.5C176.167 143.328 176.838 144 177.667 144Z" fill="black"/>
<path fill-rule="evenodd" clip-rule="evenodd" d="M186.833 142.5C186.833 143.881 185.714 145 184.333 145C182.953 145 181.833 143.881 181.833 142.5C181.833 141.119 182.953 140 184.333 140C185.714 140 186.833 141.119 186.833 142.5ZM185.833 142.5C185.833 143.328 185.162 144 184.333 144C183.505 144 182.833 143.328 182.833 142.5C182.833 141.672 183.505 141 184.333 141C185.162 141 185.833 141.672 185.833 142.5Z" fill="black"/>
<path d="M182.749 147.265C183.244 147.094 183.777 147 184.333 147C185.782 147 187.08 147.636 187.968 148.647C187.973 148.653 188 148.69 188 148.778V150C188 150.184 187.851 150.333 187.667 150.333H183.31C183.257 150.701 183.119 151.042 182.915 151.333H187.667C188.403 151.333 189 150.736 189 150V148.778C189 148.489 188.91 148.205 188.719 147.987C187.65 146.769 186.082 146 184.333 146C183.505 146 182.717 146.173 182.003 146.484C181.985 146.492 181.967 146.5 181.95 146.509C182.236 146.739 182.504 146.993 182.749 147.265Z" fill="black"/>
<path fill-rule="evenodd" clip-rule="evenodd" d="M181 151.333C181.315 151.333 181.605 151.224 181.833 151.041C182.138 150.797 182.333 150.421 182.333 150V148.778C182.333 148.489 182.243 148.205 182.053 147.987C181.841 147.746 181.609 147.522 181.36 147.318C180.354 146.494 179.068 146 177.667 146C175.918 146 174.35 146.769 173.281 147.987C173.09 148.205 173 148.489 173 148.778V150C173 150.736 173.597 151.333 174.333 151.333H181ZM181.301 148.647C181.306 148.653 181.333 148.69 181.333 148.778V150C181.333 150.184 181.184 150.333 181 150.333H174.333C174.149 150.333 174 150.184 174 150V148.778C174 148.69 174.027 148.653 174.032 148.647C174.92 147.636 176.218 147 177.667 147C179.115 147 180.414 147.636 181.301 148.647Z" fill="black"/>
</g>
</g>
<path d="M202.251 144.26C202.251 144.793 202.111 145.263 201.831 145.67L199.621 149H198.301L199.901 146.65H199.781C199.054 146.65 198.457 146.43 197.991 145.99C197.531 145.543 197.301 144.967 197.301 144.26C197.301 143.553 197.531 142.98 197.991 142.54C198.457 142.093 199.054 141.87 199.781 141.87C200.507 141.87 201.101 142.093 201.561 142.54C202.021 142.98 202.251 143.553 202.251 144.26ZM198.451 144.26C198.451 144.647 198.574 144.96 198.821 145.2C199.074 145.44 199.394 145.56 199.781 145.56C200.167 145.56 200.484 145.443 200.731 145.21C200.977 144.97 201.101 144.653 201.101 144.26C201.101 143.867 200.977 143.553 200.731 143.32C200.484 143.08 200.167 142.96 199.781 142.96C199.394 142.96 199.074 143.08 198.821 143.32C198.574 143.553 198.451 143.867 198.451 144.26ZM207.7 144.26C207.7 144.793 207.56 145.263 207.28 145.67L205.07 149H203.75L205.35 146.65H205.23C204.503 146.65 203.907 146.43 203.44 145.99C202.98 145.543 202.75 144.967 202.75 144.26C202.75 143.553 202.98 142.98 203.44 142.54C203.907 142.093 204.503 141.87 205.23 141.87C205.957 141.87 206.55 142.093 207.01 142.54C207.47 142.98 207.7 143.553 207.7 144.26ZM203.9 144.26C203.9 144.647 204.023 144.96 204.27 145.2C204.523 145.44 204.843 145.56 205.23 145.56C205.617 145.56 205.933 145.443 206.18 145.21C206.427 144.97 206.55 144.653 206.55 144.26C206.55 143.867 206.427 143.553 206.18 143.32C205.933 143.08 205.617 142.96 205.23 142.96C204.843 142.96 204.523 143.08 204.27 143.32C204.023 143.553 203.9 143.867 203.9 144.26Z" fill="black"/>
<ellipse cx="42" cy="50" rx="24" ry="25" fill="white"/>
<path d="M25.712 102.192C26.2027 102.448 26.5867 102.8 26.864 103.248C27.1413 103.696 27.28 104.213 27.28 104.8C27.28 105.717 26.9547 106.48 26.304 107.088C25.6533 107.696 24.8587 108 23.92 108H19.12V96.8H23.568C24.4853 96.8 25.2587 97.0987 25.888 97.696C26.528 98.2827 26.848 99.0187 26.848 99.904C26.848 100.875 26.4693 101.637 25.712 102.192ZM23.568 98.528H20.96V101.472H23.568C23.9733 101.472 24.3147 101.333 24.592 101.056C24.8693 100.768 25.008 100.416 25.008 100C25.008 99.584 24.8693 99.2373 24.592 98.96C24.3147 98.672 23.9733 98.528 23.568 98.528ZM23.92 106.272C24.3467 106.272 24.704 106.123 24.992 105.824C25.2907 105.515 25.44 105.141 25.44 104.704C25.44 104.267 25.2907 103.899 24.992 103.6C24.704 103.291 24.3467 103.136 23.92 103.136H20.96V106.272H23.92ZM30.5016 101.344C30.939 100.352 31.7603 99.856 32.9656 99.856V101.728C32.3043 101.685 31.7283 101.845 31.2376 102.208C30.747 102.56 30.5016 103.147 30.5016 103.968V108H28.7736V100H30.5016V101.344ZM40.2034 100H41.9314V108H40.2034V106.848C39.5527 107.755 38.6194 108.208 37.4034 108.208C36.3047 108.208 35.366 107.803 34.5874 106.992C33.8087 106.171 33.4194 105.173 33.4194 104C33.4194 102.816 33.8087 101.819 34.5874 101.008C35.366 100.197 36.3047 99.792 37.4034 99.792C38.6194 99.792 39.5527 100.24 40.2034 101.136V100ZM35.8674 105.84C36.3474 106.32 36.95 106.56 37.6754 106.56C38.4007 106.56 39.0034 106.32 39.4834 105.84C39.9634 105.349 40.2034 104.736 40.2034 104C40.2034 103.264 39.9634 102.656 39.4834 102.176C39.0034 101.685 38.4007 101.44 37.6754 101.44C36.95 101.44 36.3474 101.685 35.8674 102.176C35.3874 102.656 35.1474 103.264 35.1474 104C35.1474 104.736 35.3874 105.349 35.8674 105.84ZM48.1535 99.792C49.0708 99.792 49.8122 100.085 50.3775 100.672C50.9428 101.259 51.2255 102.064 51.2255 103.088V108H49.4975V103.264C49.4975 102.667 49.3375 102.208 49.0175 101.888C48.6975 101.568 48.2602 101.408 47.7055 101.408C47.0975 101.408 46.6068 101.6 46.2335 101.984C45.8602 102.357 45.6735 102.933 45.6735 103.712V108H43.9455V100H45.6735V101.024C46.1962 100.203 47.0228 99.792 48.1535 99.792ZM59.4221 96.8H61.1501V108H59.4221V106.848C58.7715 107.755 57.8381 108.208 56.6221 108.208C55.5235 108.208 54.5848 107.803 53.8061 106.992C53.0275 106.171 52.6381 105.173 52.6381 104C52.6381 102.816 53.0275 101.819 53.8061 101.008C54.5848 100.197 55.5235 99.792 56.6221 99.792C57.8381 99.792 58.7715 100.24 59.4221 101.136V96.8ZM55.0861 105.84C55.5661 106.32 56.1688 106.56 56.8941 106.56C57.6195 106.56 58.2221 106.32 58.7021 105.84C59.1821 105.349 59.4221 104.736 59.4221 104C59.4221 103.264 59.1821 102.656 58.7021 102.176C58.2221 101.685 57.6195 101.44 56.8941 101.44C56.1688 101.44 55.5661 101.685 55.0861 102.176C54.6061 102.656 54.3661 103.264 54.3661 104C54.3661 104.736 54.6061 105.349 55.0861 105.84ZM64.7963 98.48C64.5829 98.6933 64.3269 98.8 64.0283 98.8C63.7296 98.8 63.4683 98.6933 63.2443 98.48C63.0309 98.256 62.9243 97.9947 62.9243 97.696C62.9243 97.3973 63.0309 97.1413 63.2443 96.928C63.4576 96.704 63.7189 96.592 64.0283 96.592C64.3376 96.592 64.5989 96.704 64.8123 96.928C65.0256 97.1413 65.1323 97.3973 65.1323 97.696C65.1323 97.9947 65.0203 98.256 64.7963 98.48ZM63.1643 108V100H64.8923V108H63.1643ZM71.1066 99.792C72.024 99.792 72.7653 100.085 73.3306 100.672C73.896 101.259 74.1786 102.064 74.1786 103.088V108H72.4506V103.264C72.4506 102.667 72.2906 102.208 71.9706 101.888C71.6506 101.568 71.2133 101.408 70.6586 101.408C70.0506 101.408 69.56 101.6 69.1866 101.984C68.8133 102.357 68.6266 102.933 68.6266 103.712V108H66.8986V100H68.6266V101.024C69.1493 100.203 69.976 99.792 71.1066 99.792ZM82.4073 100H84.1033V107.632C84.1033 108.848 83.7033 109.781 82.9033 110.432C82.1033 111.083 81.1326 111.408 79.9913 111.408C78.1459 111.408 76.8819 110.763 76.1993 109.472L77.6873 108.608C78.1033 109.429 78.8819 109.84 80.0233 109.84C80.7699 109.84 81.3513 109.643 81.7673 109.248C82.1939 108.864 82.4073 108.325 82.4073 107.632V106.656C81.7566 107.584 80.8286 108.048 79.6233 108.048C78.4926 108.048 77.5379 107.648 76.7593 106.848C75.9806 106.037 75.5913 105.061 75.5913 103.92C75.5913 102.779 75.9806 101.808 76.7593 101.008C77.5379 100.197 78.4926 99.792 79.6233 99.792C80.8286 99.792 81.7566 100.256 82.4073 101.184V100ZM78.0393 105.712C78.5299 106.192 79.1379 106.432 79.8633 106.432C80.5886 106.432 81.1913 106.192 81.6713 105.712C82.1619 105.232 82.4073 104.635 82.4073 103.92C82.4073 103.205 82.1619 102.608 81.6713 102.128C81.1913 101.648 80.5886 101.408 79.8633 101.408C79.1379 101.408 78.5299 101.648 78.0393 102.128C77.5593 102.608 77.3193 103.205 77.3193 103.92C77.3193 104.635 77.5593 105.232 78.0393 105.712ZM94.6294 96.8C96.1654 96.8 97.44 97.3387 98.4534 98.416C99.4774 99.4933 99.9894 100.821 99.9894 102.4C99.9894 103.968 99.4774 105.296 98.4534 106.384C97.44 107.461 96.1654 108 94.6294 108H90.2294V96.8H94.6294ZM94.6294 106.24C95.6854 106.24 96.544 105.877 97.2054 105.152C97.8774 104.427 98.2134 103.509 98.2134 102.4C98.2134 101.28 97.8774 100.363 97.2054 99.648C96.544 98.9227 95.6854 98.56 94.6294 98.56H92.0694V106.24H94.6294ZM102.915 104.736C103.043 105.344 103.336 105.813 103.795 106.144C104.254 106.464 104.814 106.624 105.475 106.624C106.392 106.624 107.08 106.293 107.539 105.632L108.963 106.464C108.174 107.627 107.006 108.208 105.459 108.208C104.158 108.208 103.107 107.813 102.307 107.024C101.507 106.224 101.107 105.216 101.107 104C101.107 102.805 101.502 101.808 102.291 101.008C103.08 100.197 104.094 99.792 105.331 99.792C106.504 99.792 107.464 100.203 108.211 101.024C108.968 101.845 109.347 102.843 109.347 104.016C109.347 104.197 109.326 104.437 109.283 104.736H102.915ZM102.899 103.328H107.603C107.486 102.677 107.214 102.187 106.787 101.856C106.371 101.525 105.88 101.36 105.315 101.36C104.675 101.36 104.142 101.536 103.715 101.888C103.288 102.24 103.016 102.72 102.899 103.328ZM112.107 102.208C112.107 102.475 112.251 102.688 112.539 102.848C112.838 102.997 113.195 103.131 113.611 103.248C114.038 103.355 114.464 103.483 114.891 103.632C115.318 103.781 115.675 104.037 115.963 104.4C116.262 104.752 116.411 105.2 116.411 105.744C116.411 106.512 116.112 107.115 115.515 107.552C114.928 107.989 114.187 108.208 113.291 108.208C112.502 108.208 111.824 108.043 111.259 107.712C110.694 107.381 110.283 106.923 110.027 106.336L111.515 105.472C111.792 106.24 112.384 106.624 113.291 106.624C114.198 106.624 114.651 106.325 114.651 105.728C114.651 105.472 114.502 105.264 114.203 105.104C113.915 104.944 113.558 104.811 113.131 104.704C112.715 104.587 112.294 104.453 111.867 104.304C111.44 104.155 111.078 103.909 110.779 103.568C110.491 103.216 110.347 102.773 110.347 102.24C110.347 101.504 110.624 100.912 111.179 100.464C111.744 100.016 112.443 99.792 113.275 99.792C113.936 99.792 114.523 99.9413 115.035 100.24C115.558 100.528 115.958 100.933 116.235 101.456L114.779 102.272C114.502 101.664 114 101.36 113.275 101.36C112.944 101.36 112.667 101.435 112.443 101.584C112.219 101.723 112.107 101.931 112.107 102.208ZM119.468 98.48C119.255 98.6933 118.999 98.8 118.7 98.8C118.401 98.8 118.14 98.6933 117.916 98.48C117.703 98.256 117.596 97.9947 117.596 97.696C117.596 97.3973 117.703 97.1413 117.916 96.928C118.129 96.704 118.391 96.592 118.7 96.592C119.009 96.592 119.271 96.704 119.484 96.928C119.697 97.1413 119.804 97.3973 119.804 97.696C119.804 97.9947 119.692 98.256 119.468 98.48ZM117.836 108V100H119.564V108H117.836ZM127.939 100H129.635V107.632C129.635 108.848 129.235 109.781 128.435 110.432C127.635 111.083 126.664 111.408 125.523 111.408C123.677 111.408 122.413 110.763 121.731 109.472L123.219 108.608C123.635 109.429 124.413 109.84 125.555 109.84C126.301 109.84 126.883 109.643 127.299 109.248C127.725 108.864 127.939 108.325 127.939 107.632V106.656C127.288 107.584 126.36 108.048 125.155 108.048C124.024 108.048 123.069 107.648 122.291 106.848C121.512 106.037 121.123 105.061 121.123 103.92C121.123 102.779 121.512 101.808 122.291 101.008C123.069 100.197 124.024 99.792 125.155 99.792C126.36 99.792 127.288 100.256 127.939 101.184V100ZM123.571 105.712C124.061 106.192 124.669 106.432 125.395 106.432C126.12 106.432 126.723 106.192 127.203 105.712C127.693 105.232 127.939 104.635 127.939 103.92C127.939 103.205 127.693 102.608 127.203 102.128C126.723 101.648 126.12 101.408 125.395 101.408C124.669 101.408 124.061 101.648 123.571 102.128C123.091 102.608 122.851 103.205 122.851 103.92C122.851 104.635 123.091 105.232 123.571 105.712ZM135.857 99.792C136.774 99.792 137.515 100.085 138.081 100.672C138.646 101.259 138.929 102.064 138.929 103.088V108H137.201V103.264C137.201 102.667 137.041 102.208 136.721 101.888C136.401 101.568 135.963 101.408 135.409 101.408C134.801 101.408 134.31 101.6 133.937 101.984C133.563 102.357 133.377 102.933 133.377 103.712V108H131.649V100H133.377V101.024C133.899 100.203 134.726 99.792 135.857 99.792Z" fill="#1F1D39"/>
<path fill-rule="evenodd" clip-rule="evenodd" d="M44.8646 41.7249C44.952 41.5002 45 41.2557 45 41C45 39.8954 44.1046 39 43 39C41.8954 39 41 39.8954 41 41C41 41.2557 41.048 41.5002 41.1354 41.7249L35.1468 47.3613C34.8221 47.1336 34.4267 47 34 47C32.8954 47 32 47.8954 32 49C32 50.1046 32.8954 51 34 51C35.1046 51 36 50.1046 36 49C36 48.8797 35.9894 48.7618 35.969 48.6473L42.1635 42.8172C42.418 42.9345 42.7014 43 43 43C43.2986 43 43.582 42.9345 43.8365 42.8172L49.2948 47.9544C49.1078 48.2586 49 48.6167 49 49C49 50.1046 49.8954 51 51 51C52.1046 51 53 50.1046 53 49C53 47.8954 52.1046 47 51 47C50.8376 47 50.6798 47.0193 50.5287 47.0559L44.8646 41.7249Z" fill="#FF9053"/>
<path d="M40.4594 56.948C37.712 53.4169 38.389 51.5699 43 48.5C48.0363 51.922 48.0066 53.7677 45.5 57L40.4594 56.948Z" fill="#FFD5BE"/>
<path d="M40.5 57C37.7055 53.4349 38.3665 51.5849 43 48.5C48.0363 51.922 48.0066 53.7677 45.5 57L40.4594 56.948" stroke="#FFD5BE" stroke-linecap="round"/>
<path d="M40 57H46V60C46 60.5523 45.5523 61 45 61H41C40.4477 61 40 60.5523 40 60V57Z" fill="#FF9053"/>
<defs>
<clipPath id="clip0_1907_2238">
<rect width="16" height="16" fill="white" transform="translate(173 138)"/>
</clipPath>
</defs>
</svg>
