<svg width="240" height="177" viewBox="0 0 240 177" fill="none" xmlns="http://www.w3.org/2000/svg">
<rect width="240" height="177" rx="12" fill="#F8E2F6"/>
<rect x="8" y="125" width="222" height="44" rx="11" fill="#FAECF9"/>
<path fill-rule="evenodd" clip-rule="evenodd" d="M38 151.333H34.3333C33.597 151.333 33 150.736 33 150V142C33 141.264 33.597 140.667 34.3333 140.667H38C38.8178 140.667 39.5439 141.059 40 141.666C40.4561 141.059 41.1822 140.667 42 140.667H45.6667C46.4031 140.667 47 141.264 47 142V150C47 150.736 46.4031 151.333 45.6667 151.333H42C41.4059 151.333 40.8924 151.679 40.6495 152.18C40.5231 152.441 40.2898 152.667 40 152.667C39.7102 152.667 39.4769 152.441 39.3505 152.18C39.1076 151.679 38.5941 151.333 38 151.333ZM34 142C34 141.816 34.1492 141.667 34.3333 141.667H38C38.8284 141.667 39.5 142.338 39.5 143.167V150.833C39.0822 150.519 38.5628 150.333 38 150.333H34.3333C34.1492 150.333 34 150.184 34 150V142ZM42 141.667C41.1716 141.667 40.5 142.338 40.5 143.167V150.833C40.9178 150.519 41.4372 150.333 42 150.333H45.6667C45.8507 150.333 46 150.184 46 150V142C46 141.816 45.8507 141.667 45.6667 141.667H42Z" fill="black"/>
<path d="M58.385 142H59.385V149H58.235V143.23L56.825 143.63L56.545 142.65L58.385 142ZM65.3357 144.26C65.3357 144.793 65.1957 145.263 64.9157 145.67L62.7057 149H61.3857L62.9857 146.65H62.8657C62.1391 146.65 61.5424 146.43 61.0757 145.99C60.6157 145.543 60.3857 144.967 60.3857 144.26C60.3857 143.553 60.6157 142.98 61.0757 142.54C61.5424 142.093 62.1391 141.87 62.8657 141.87C63.5924 141.87 64.1857 142.093 64.6457 142.54C65.1057 142.98 65.3357 143.553 65.3357 144.26ZM61.5357 144.26C61.5357 144.647 61.6591 144.96 61.9057 145.2C62.1591 145.44 62.4791 145.56 62.8657 145.56C63.2524 145.56 63.5691 145.443 63.8157 145.21C64.0624 144.97 64.1857 144.653 64.1857 144.26C64.1857 143.867 64.0624 143.553 63.8157 143.32C63.5691 143.08 63.2524 142.96 62.8657 142.96C62.4791 142.96 62.1591 143.08 61.9057 143.32C61.6591 143.553 61.5357 143.867 61.5357 144.26Z" fill="black"/>
<path d="M85 137V155" stroke="#F8E2F8" stroke-width="2" stroke-linecap="square"/>
<path d="M114.667 144.667C114.667 144.943 114.443 145.167 114.167 145.167H109.833C109.557 145.167 109.333 144.943 109.333 144.667C109.333 144.391 109.557 144.167 109.833 144.167H114.167C114.443 144.167 114.667 144.391 114.667 144.667Z" fill="black"/>
<path d="M113.333 147.333C113.333 147.609 113.109 147.833 112.833 147.833H109.833C109.557 147.833 109.333 147.609 109.333 147.333C109.333 147.057 109.557 146.833 109.833 146.833H112.833C113.109 146.833 113.333 147.057 113.333 147.333Z" fill="black"/>
<path fill-rule="evenodd" clip-rule="evenodd" d="M110.667 138.667C109.93 138.667 109.333 139.264 109.333 140H108C107.264 140 106.667 140.597 106.667 141.333V151.333C106.667 152.07 107.264 152.667 108 152.667H116C116.736 152.667 117.333 152.07 117.333 151.333V141.333C117.333 140.597 116.736 140 116 140H114.667C114.667 139.264 114.07 138.667 113.333 138.667H110.667ZM113.667 140C113.667 139.816 113.517 139.667 113.333 139.667H110.667C110.483 139.667 110.333 139.816 110.333 140V141C110.333 141.184 110.483 141.333 110.667 141.333H113.333C113.517 141.333 113.667 141.184 113.667 141V140ZM114.667 141C114.667 141.736 114.07 142.333 113.333 142.333H110.667C109.93 142.333 109.333 141.736 109.333 141H108C107.816 141 107.667 141.149 107.667 141.333V151.333C107.667 151.517 107.816 151.667 108 151.667H116C116.184 151.667 116.333 151.517 116.333 151.333V141.333C116.333 141.149 116.184 141 116 141H114.667Z" fill="black"/>
<path d="M131.005 144.35C131.732 144.35 132.325 144.573 132.785 145.02C133.245 145.46 133.475 146.033 133.475 146.74C133.475 147.447 133.245 148.023 132.785 148.47C132.325 148.91 131.732 149.13 131.005 149.13C130.272 149.13 129.675 148.91 129.215 148.47C128.755 148.023 128.525 147.447 128.525 146.74C128.525 146.207 128.665 145.737 128.945 145.33L131.165 142H132.475L130.875 144.35H131.005ZM131.005 148.04C131.392 148.04 131.709 147.923 131.955 147.69C132.202 147.45 132.325 147.133 132.325 146.74C132.325 146.347 132.202 146.033 131.955 145.8C131.709 145.56 131.392 145.44 131.005 145.44C130.612 145.44 130.292 145.56 130.045 145.8C129.799 146.033 129.675 146.347 129.675 146.74C129.675 147.133 129.799 147.45 130.045 147.69C130.292 147.923 130.612 148.04 131.005 148.04Z" fill="black"/>
<path d="M153 137V155" stroke="#F8E2F8" stroke-width="2" stroke-linecap="square"/>
<g clip-path="url(#clip0_1907_6616)">
<mask id="mask0_1907_6616" style="mask-type:luminance" maskUnits="userSpaceOnUse" x="172" y="138" width="16" height="16">
<path d="M188 138H172V154H188V138Z" fill="white"/>
</mask>
<g mask="url(#mask0_1907_6616)">
<path fill-rule="evenodd" clip-rule="evenodd" d="M176.667 145C178.047 145 179.167 143.881 179.167 142.5C179.167 141.119 178.047 140 176.667 140C175.286 140 174.167 141.119 174.167 142.5C174.167 143.881 175.286 145 176.667 145ZM176.667 144C177.495 144 178.167 143.328 178.167 142.5C178.167 141.672 177.495 141 176.667 141C175.838 141 175.167 141.672 175.167 142.5C175.167 143.328 175.838 144 176.667 144Z" fill="black"/>
<path fill-rule="evenodd" clip-rule="evenodd" d="M185.833 142.5C185.833 143.881 184.714 145 183.333 145C181.953 145 180.833 143.881 180.833 142.5C180.833 141.119 181.953 140 183.333 140C184.714 140 185.833 141.119 185.833 142.5ZM184.833 142.5C184.833 143.328 184.162 144 183.333 144C182.505 144 181.833 143.328 181.833 142.5C181.833 141.672 182.505 141 183.333 141C184.162 141 184.833 141.672 184.833 142.5Z" fill="black"/>
<path d="M181.749 147.265C182.244 147.094 182.777 147 183.333 147C184.782 147 186.08 147.636 186.968 148.647C186.973 148.653 187 148.69 187 148.778V150C187 150.184 186.851 150.333 186.667 150.333H182.31C182.257 150.701 182.119 151.042 181.915 151.333H186.667C187.403 151.333 188 150.736 188 150V148.778C188 148.489 187.91 148.205 187.719 147.987C186.65 146.769 185.082 146 183.333 146C182.505 146 181.717 146.173 181.003 146.484C180.985 146.492 180.967 146.5 180.95 146.509C181.236 146.739 181.504 146.993 181.749 147.265Z" fill="black"/>
<path fill-rule="evenodd" clip-rule="evenodd" d="M180 151.333C180.315 151.333 180.605 151.224 180.833 151.041C181.138 150.797 181.333 150.421 181.333 150V148.778C181.333 148.489 181.243 148.205 181.053 147.987C180.841 147.746 180.609 147.522 180.36 147.318C179.354 146.494 178.068 146 176.667 146C174.918 146 173.35 146.769 172.281 147.987C172.09 148.205 172 148.489 172 148.778V150C172 150.736 172.597 151.333 173.333 151.333H180ZM180.301 148.647C180.306 148.653 180.333 148.69 180.333 148.778V150C180.333 150.184 180.184 150.333 180 150.333H173.333C173.149 150.333 173 150.184 173 150V148.778C173 148.69 173.027 148.653 173.032 148.647C173.92 147.636 175.218 147 176.667 147C178.115 147 179.414 147.636 180.301 148.647Z" fill="black"/>
</g>
</g>
<path d="M198.463 142H199.463V149H198.313V143.23L196.903 143.63L196.623 142.65L198.463 142ZM200.524 149V148.1L202.964 145.61C203.557 145.017 203.854 144.503 203.854 144.07C203.854 143.73 203.751 143.467 203.544 143.28C203.344 143.087 203.087 142.99 202.774 142.99C202.187 142.99 201.754 143.28 201.474 143.86L200.504 143.29C200.724 142.823 201.034 142.47 201.434 142.23C201.834 141.99 202.277 141.87 202.764 141.87C203.377 141.87 203.904 142.063 204.344 142.45C204.784 142.837 205.004 143.363 205.004 144.03C205.004 144.743 204.607 145.503 203.814 146.31L202.234 147.89H205.134V149H200.524Z" fill="black"/>
<ellipse cx="42" cy="50" rx="24" ry="25" fill="white"/>
<path d="M20.96 106.24H25.92V108H19.12V96.8H25.84V98.56H20.96V101.472H25.44V103.216H20.96V106.24ZM34.6444 108H32.6444L30.6604 105.264L28.6604 108H26.6444L29.6524 103.888L26.8044 100H28.8044L30.6444 102.528L32.4844 100H34.5004L31.6524 103.904L34.6444 108ZM40.3329 99.792C41.4315 99.792 42.3702 100.203 43.1489 101.024C43.9275 101.835 44.3169 102.827 44.3169 104C44.3169 105.184 43.9275 106.181 43.1489 106.992C42.3702 107.803 41.4315 108.208 40.3329 108.208C39.1169 108.208 38.1835 107.76 37.5329 106.864V111.2H35.8049V100H37.5329V101.152C38.1835 100.245 39.1169 99.792 40.3329 99.792ZM38.2529 105.84C38.7329 106.32 39.3355 106.56 40.0609 106.56C40.7862 106.56 41.3889 106.32 41.8689 105.84C42.3489 105.349 42.5889 104.736 42.5889 104C42.5889 103.264 42.3489 102.656 41.8689 102.176C41.3889 101.685 40.7862 101.44 40.0609 101.44C39.3355 101.44 38.7329 101.685 38.2529 102.176C37.7729 102.656 37.5329 103.264 37.5329 104C37.5329 104.736 37.7729 105.349 38.2529 105.84ZM47.243 104.736C47.371 105.344 47.6643 105.813 48.123 106.144C48.5817 106.464 49.1417 106.624 49.803 106.624C50.7203 106.624 51.4083 106.293 51.867 105.632L53.291 106.464C52.5017 107.627 51.3337 108.208 49.787 108.208C48.4857 108.208 47.435 107.813 46.635 107.024C45.835 106.224 45.435 105.216 45.435 104C45.435 102.805 45.8297 101.808 46.619 101.008C47.4083 100.197 48.4217 99.792 49.659 99.792C50.8323 99.792 51.7923 100.203 52.539 101.024C53.2963 101.845 53.675 102.843 53.675 104.016C53.675 104.197 53.6537 104.437 53.611 104.736H47.243ZM47.227 103.328H51.931C51.8137 102.677 51.5417 102.187 51.115 101.856C50.699 101.525 50.2083 101.36 49.643 101.36C49.003 101.36 48.4697 101.536 48.043 101.888C47.6163 102.24 47.3443 102.72 47.227 103.328ZM56.9235 101.344C57.3608 100.352 58.1822 99.856 59.3875 99.856V101.728C58.7262 101.685 58.1502 101.845 57.6595 102.208C57.1688 102.56 56.9235 103.147 56.9235 103.968V108H55.1955V100H56.9235V101.344ZM65.3314 101.664H63.3474V105.504C63.3474 105.835 63.422 106.075 63.5714 106.224C63.7207 106.363 63.9394 106.443 64.2274 106.464C64.526 106.475 64.894 106.469 65.3314 106.448V108C64.0087 108.16 63.0594 108.048 62.4834 107.664C61.9074 107.269 61.6194 106.549 61.6194 105.504V101.664H60.1474V100H61.6194V98.272L63.3474 97.76V100H65.3314V101.664ZM68.8648 101.84C68.6301 102.075 68.3474 102.192 68.0168 102.192C67.6861 102.192 67.4034 102.075 67.1688 101.84C66.9341 101.605 66.8168 101.323 66.8168 100.992C66.8168 100.651 66.9288 100.368 67.1528 100.144C67.3874 99.9093 67.6754 99.792 68.0168 99.792C68.3474 99.792 68.6301 99.9093 68.8648 100.144C69.0994 100.379 69.2168 100.661 69.2168 100.992C69.2168 101.323 69.0994 101.605 68.8648 101.84ZM68.8648 107.84C68.6301 108.075 68.3474 108.192 68.0168 108.192C67.6861 108.192 67.4034 108.075 67.1688 107.84C66.9341 107.605 66.8168 107.323 66.8168 106.992C66.8168 106.661 66.9288 106.379 67.1528 106.144C67.3874 105.909 67.6754 105.792 68.0168 105.792C68.3474 105.792 68.6301 105.909 68.8648 106.144C69.0994 106.379 69.2168 106.661 69.2168 106.992C69.2168 107.323 69.0994 107.605 68.8648 107.84ZM82.3509 107.152C81.5615 107.856 80.5429 108.208 79.2949 108.208C78.0469 108.208 77.0282 107.856 76.2389 107.152C75.4495 106.437 75.0549 105.483 75.0549 104.288V96.8H76.8949V104.176C76.8949 104.859 77.0922 105.403 77.4869 105.808C77.8922 106.213 78.4949 106.416 79.2949 106.416C80.0949 106.416 80.6922 106.213 81.0869 105.808C81.4922 105.403 81.6949 104.859 81.6949 104.176V96.8H83.5349V104.288C83.5349 105.483 83.1402 106.437 82.3509 107.152ZM85.6513 96.8H87.4913V108H85.6513V96.8ZM90.0494 109.6H89.1694L95.5694 95.2H96.4494L90.0494 109.6ZM105.32 107.152C104.53 107.856 103.512 108.208 102.264 108.208C101.016 108.208 99.997 107.856 99.2076 107.152C98.4183 106.437 98.0236 105.483 98.0236 104.288V96.8H99.8636V104.176C99.8636 104.859 100.061 105.403 100.456 105.808C100.861 106.213 101.464 106.416 102.264 106.416C103.064 106.416 103.661 106.213 104.056 105.808C104.461 105.403 104.664 104.859 104.664 104.176V96.8H106.504V104.288C106.504 105.483 106.109 106.437 105.32 107.152ZM116.704 108H114.608L112.144 103.952L109.68 108H107.584L111.104 102.24L107.792 96.8H109.872L112.144 100.528L114.416 96.8H116.512L113.2 102.24L116.704 108Z" fill="#1F1D39"/>
<path d="M37.9839 54.5444C32.9286 48.047 34.1744 44.6486 42.6586 39C51.9254 45.2965 51.8708 48.6926 47.2586 54.64L37.9839 54.5444Z" fill="#FFBEF1"/>
<path d="M38.0586 54.64C32.9166 48.0802 34.1329 44.6762 42.6586 39C51.9254 45.2965 51.8708 48.6926 47.2586 54.64L37.9839 54.5444" stroke="#FFBEF1" stroke-width="1.84" stroke-linecap="round"/>
<path d="M37.1385 54.64H48.1785V60.16C48.1785 61.1762 47.3547 62 46.3385 62H38.9785C37.9623 62 37.1385 61.1762 37.1385 60.16V54.64Z" fill="#FF53EE"/>
<defs>
<clipPath id="clip0_1907_6616">
<rect width="16" height="16" fill="white" transform="translate(172 138)"/>
</clipPath>
</defs>
</svg>
