<svg width="280" height="110" viewBox="0 0 280 110" fill="none" xmlns="http://www.w3.org/2000/svg">
<rect x="30" y="34" width="20" height="20" rx="5" stroke="#676767" stroke-width="2"/>
<path d="M68.83 38.2C70.174 38.2 71.2893 38.6713 72.176 39.614C73.072 40.5567 73.52 41.7187 73.52 43.1C73.52 44.472 73.072 45.634 72.176 46.586C71.2893 47.5287 70.174 48 68.83 48H64.98V38.2H68.83ZM68.83 46.46C69.754 46.46 70.5053 46.1427 71.084 45.508C71.672 44.8733 71.966 44.0707 71.966 43.1C71.966 42.12 71.672 41.3173 71.084 40.692C70.5053 40.0573 69.754 39.74 68.83 39.74H66.59V46.46H68.83ZM76.0798 45.144C76.1918 45.676 76.4485 46.0867 76.8498 46.376C77.2511 46.656 77.7411 46.796 78.3198 46.796C79.1225 46.796 79.7245 46.5067 80.1258 45.928L81.3718 46.656C80.6811 47.6733 79.6591 48.182 78.3058 48.182C77.1671 48.182 76.2478 47.8367 75.5478 47.146C74.8478 46.446 74.4978 45.564 74.4978 44.5C74.4978 43.4547 74.8431 42.582 75.5338 41.882C76.2245 41.1727 77.1111 40.818 78.1938 40.818C79.2205 40.818 80.0605 41.1773 80.7138 41.896C81.3765 42.6147 81.7078 43.4873 81.7078 44.514C81.7078 44.6727 81.6891 44.8827 81.6518 45.144H76.0798ZM76.0658 43.912H80.1818C80.0791 43.3427 79.8411 42.9133 79.4678 42.624C79.1038 42.3347 78.6745 42.19 78.1798 42.19C77.6198 42.19 77.1531 42.344 76.7798 42.652C76.4065 42.96 76.1685 43.38 76.0658 43.912ZM87.5108 41H89.1628L86.4328 48H84.6828L81.9528 41H83.6048L85.5648 46.32L87.5108 41ZM91.0368 45.144C91.1488 45.676 91.4055 46.0867 91.8068 46.376C92.2082 46.656 92.6982 46.796 93.2768 46.796C94.0795 46.796 94.6815 46.5067 95.0828 45.928L96.3288 46.656C95.6382 47.6733 94.6162 48.182 93.2628 48.182C92.1242 48.182 91.2048 47.8367 90.5048 47.146C89.8048 46.446 89.4548 45.564 89.4548 44.5C89.4548 43.4547 89.8002 42.582 90.4908 41.882C91.1815 41.1727 92.0682 40.818 93.1508 40.818C94.1775 40.818 95.0175 41.1773 95.6708 41.896C96.3335 42.6147 96.6648 43.4873 96.6648 44.514C96.6648 44.6727 96.6462 44.8827 96.6088 45.144H91.0368ZM91.0228 43.912H95.1388C95.0362 43.3427 94.7982 42.9133 94.4248 42.624C94.0608 42.3347 93.6315 42.19 93.1368 42.19C92.5768 42.19 92.1102 42.344 91.7368 42.652C91.3635 42.96 91.1255 43.38 91.0228 43.912ZM97.9953 48V37.78H99.5073V48H97.9953ZM104.567 48.182C103.54 48.182 102.668 47.8273 101.949 47.118C101.23 46.4087 100.871 45.536 100.871 44.5C100.871 43.464 101.23 42.5913 101.949 41.882C102.668 41.1727 103.54 40.818 104.567 40.818C105.603 40.818 106.476 41.1727 107.185 41.882C107.904 42.5913 108.263 43.464 108.263 44.5C108.263 45.536 107.904 46.4087 107.185 47.118C106.476 47.8273 105.603 48.182 104.567 48.182ZM103.013 46.082C103.433 46.502 103.951 46.712 104.567 46.712C105.183 46.712 105.701 46.502 106.121 46.082C106.541 45.662 106.751 45.1347 106.751 44.5C106.751 43.8653 106.541 43.338 106.121 42.918C105.701 42.498 105.183 42.288 104.567 42.288C103.951 42.288 103.433 42.498 103.013 42.918C102.593 43.338 102.383 43.8653 102.383 44.5C102.383 45.1347 102.593 45.662 103.013 46.082ZM113.592 40.818C114.553 40.818 115.375 41.1773 116.056 41.896C116.737 42.6053 117.078 43.4733 117.078 44.5C117.078 45.536 116.737 46.4087 116.056 47.118C115.375 47.8273 114.553 48.182 113.592 48.182C112.528 48.182 111.711 47.79 111.142 47.006V50.8H109.63V41H111.142V42.008C111.711 41.2147 112.528 40.818 113.592 40.818ZM111.772 46.11C112.192 46.53 112.719 46.74 113.354 46.74C113.989 46.74 114.516 46.53 114.936 46.11C115.356 45.6807 115.566 45.144 115.566 44.5C115.566 43.856 115.356 43.324 114.936 42.904C114.516 42.4747 113.989 42.26 113.354 42.26C112.719 42.26 112.192 42.4747 111.772 42.904C111.352 43.324 111.142 43.856 111.142 44.5C111.142 45.144 111.352 45.6807 111.772 46.11ZM119.876 39.67C119.69 39.8567 119.466 39.95 119.204 39.95C118.943 39.95 118.714 39.8567 118.518 39.67C118.332 39.474 118.238 39.2453 118.238 38.984C118.238 38.7227 118.332 38.4987 118.518 38.312C118.705 38.116 118.934 38.018 119.204 38.018C119.475 38.018 119.704 38.116 119.89 38.312C120.077 38.4987 120.17 38.7227 120.17 38.984C120.17 39.2453 120.072 39.474 119.876 39.67ZM118.448 48V41H119.96V48H118.448ZM125.398 40.818C126.201 40.818 126.849 41.0747 127.344 41.588C127.839 42.1013 128.086 42.806 128.086 43.702V48H126.574V43.856C126.574 43.3333 126.434 42.932 126.154 42.652C125.874 42.372 125.491 42.232 125.006 42.232C124.474 42.232 124.045 42.4 123.718 42.736C123.391 43.0627 123.228 43.5667 123.228 44.248V48H121.716V41H123.228V41.896C123.685 41.1773 124.409 40.818 125.398 40.818ZM135.286 41H136.77V47.678C136.77 48.742 136.42 49.5587 135.72 50.128C135.02 50.6973 134.171 50.982 133.172 50.982C131.557 50.982 130.451 50.4173 129.854 49.288L131.156 48.532C131.52 49.2507 132.201 49.61 133.2 49.61C133.853 49.61 134.362 49.4373 134.726 49.092C135.099 48.756 135.286 48.2847 135.286 47.678V46.824C134.717 47.636 133.905 48.042 132.85 48.042C131.861 48.042 131.025 47.692 130.344 46.992C129.663 46.2827 129.322 45.4287 129.322 44.43C129.322 43.4313 129.663 42.582 130.344 41.882C131.025 41.1727 131.861 40.818 132.85 40.818C133.905 40.818 134.717 41.224 135.286 42.036V41ZM131.464 45.998C131.893 46.418 132.425 46.628 133.06 46.628C133.695 46.628 134.222 46.418 134.642 45.998C135.071 45.578 135.286 45.0553 135.286 44.43C135.286 43.8047 135.071 43.282 134.642 42.862C134.222 42.442 133.695 42.232 133.06 42.232C132.425 42.232 131.893 42.442 131.464 42.862C131.044 43.282 130.834 43.8047 130.834 44.43C130.834 45.0553 131.044 45.578 131.464 45.998ZM147.716 48L145.644 44.43H143.74V48H142.13V38.2H146.05C146.928 38.2 147.67 38.508 148.276 39.124C148.892 39.7307 149.2 40.4727 149.2 41.35C149.2 41.9753 149.018 42.5493 148.654 43.072C148.3 43.5853 147.833 43.9587 147.254 44.192L149.48 48H147.716ZM143.74 39.712V42.988H146.05C146.48 42.988 146.844 42.8293 147.142 42.512C147.441 42.1947 147.59 41.8073 147.59 41.35C147.59 40.8927 147.441 40.5053 147.142 40.188C146.844 39.8707 146.48 39.712 146.05 39.712H143.74ZM151.439 45.144C151.551 45.676 151.808 46.0867 152.209 46.376C152.611 46.656 153.101 46.796 153.679 46.796C154.482 46.796 155.084 46.5067 155.485 45.928L156.731 46.656C156.041 47.6733 155.019 48.182 153.665 48.182C152.527 48.182 151.607 47.8367 150.907 47.146C150.207 46.446 149.857 45.564 149.857 44.5C149.857 43.4547 150.203 42.582 150.893 41.882C151.584 41.1727 152.471 40.818 153.553 40.818C154.58 40.818 155.42 41.1773 156.073 41.896C156.736 42.6147 157.067 43.4873 157.067 44.514C157.067 44.6727 157.049 44.8827 157.011 45.144H151.439ZM151.425 43.912H155.541C155.439 43.3427 155.201 42.9133 154.827 42.624C154.463 42.3347 154.034 42.19 153.539 42.19C152.979 42.19 152.513 42.344 152.139 42.652C151.766 42.96 151.528 43.38 151.425 43.912ZM159.482 42.932C159.482 43.1653 159.608 43.352 159.86 43.492C160.122 43.6227 160.434 43.7393 160.798 43.842C161.172 43.9353 161.545 44.0473 161.918 44.178C162.292 44.3087 162.604 44.5327 162.856 44.85C163.118 45.158 163.248 45.55 163.248 46.026C163.248 46.698 162.987 47.2253 162.464 47.608C161.951 47.9907 161.302 48.182 160.518 48.182C159.828 48.182 159.235 48.0373 158.74 47.748C158.246 47.4587 157.886 47.0573 157.662 46.544L158.964 45.788C159.207 46.46 159.725 46.796 160.518 46.796C161.312 46.796 161.708 46.5347 161.708 46.012C161.708 45.788 161.578 45.606 161.316 45.466C161.064 45.326 160.752 45.2093 160.378 45.116C160.014 45.0133 159.646 44.8967 159.272 44.766C158.899 44.6353 158.582 44.4207 158.32 44.122C158.068 43.814 157.942 43.4267 157.942 42.96C157.942 42.316 158.185 41.798 158.67 41.406C159.165 41.014 159.776 40.818 160.504 40.818C161.083 40.818 161.596 40.9487 162.044 41.21C162.502 41.462 162.852 41.8167 163.094 42.274L161.82 42.988C161.578 42.456 161.139 42.19 160.504 42.19C160.215 42.19 159.972 42.2553 159.776 42.386C159.58 42.5073 159.482 42.6893 159.482 42.932ZM168.21 42.456H166.474V45.816C166.474 46.1053 166.539 46.3153 166.67 46.446C166.801 46.5673 166.992 46.6373 167.244 46.656C167.505 46.6653 167.827 46.6607 168.21 46.642V48C167.053 48.14 166.222 48.042 165.718 47.706C165.214 47.3607 164.962 46.7307 164.962 45.816V42.456H163.674V41H164.962V39.488L166.474 39.04V41H168.21V42.456ZM174.838 41H176.35V48H174.838V46.992C174.269 47.7853 173.452 48.182 172.388 48.182C171.427 48.182 170.605 47.8273 169.924 47.118C169.243 46.3993 168.902 45.5267 168.902 44.5C168.902 43.464 169.243 42.5913 169.924 41.882C170.605 41.1727 171.427 40.818 172.388 40.818C173.452 40.818 174.269 41.21 174.838 41.994V41ZM171.044 46.11C171.464 46.53 171.991 46.74 172.626 46.74C173.261 46.74 173.788 46.53 174.208 46.11C174.628 45.6807 174.838 45.144 174.838 44.5C174.838 43.856 174.628 43.324 174.208 42.904C173.788 42.4747 173.261 42.26 172.626 42.26C171.991 42.26 171.464 42.4747 171.044 42.904C170.624 43.324 170.414 43.856 170.414 44.5C170.414 45.144 170.624 45.6807 171.044 46.11ZM182.83 41H184.342V48H182.83V47.104C182.373 47.8227 181.65 48.182 180.66 48.182C179.858 48.182 179.209 47.9253 178.714 47.412C178.22 46.8987 177.972 46.194 177.972 45.298V41H179.484V45.144C179.484 45.6667 179.624 46.068 179.904 46.348C180.184 46.628 180.567 46.768 181.052 46.768C181.584 46.768 182.014 46.6047 182.34 46.278C182.667 45.942 182.83 45.4333 182.83 44.752V41ZM187.623 42.176C188.005 41.308 188.724 40.874 189.779 40.874V42.512C189.2 42.4747 188.696 42.6147 188.267 42.932C187.837 43.24 187.623 43.7533 187.623 44.472V48H186.111V41H187.623V42.176ZM196.112 41H197.624V48H196.112V46.992C195.542 47.7853 194.726 48.182 193.662 48.182C192.7 48.182 191.879 47.8273 191.198 47.118C190.516 46.3993 190.176 45.5267 190.176 44.5C190.176 43.464 190.516 42.5913 191.198 41.882C191.879 41.1727 192.7 40.818 193.662 40.818C194.726 40.818 195.542 41.21 196.112 41.994V41ZM192.318 46.11C192.738 46.53 193.265 46.74 193.9 46.74C194.534 46.74 195.062 46.53 195.482 46.11C195.902 45.6807 196.112 45.144 196.112 44.5C196.112 43.856 195.902 43.324 195.482 42.904C195.062 42.4747 194.534 42.26 193.9 42.26C193.265 42.26 192.738 42.4747 192.318 42.904C191.898 43.324 191.688 43.856 191.688 44.5C191.688 45.144 191.898 45.6807 192.318 46.11ZM203.068 40.818C203.871 40.818 204.519 41.0747 205.014 41.588C205.509 42.1013 205.756 42.806 205.756 43.702V48H204.244V43.856C204.244 43.3333 204.104 42.932 203.824 42.652C203.544 42.372 203.161 42.232 202.676 42.232C202.144 42.232 201.715 42.4 201.388 42.736C201.061 43.0627 200.898 43.5667 200.898 44.248V48H199.386V41H200.898V41.896C201.355 41.1773 202.079 40.818 203.068 40.818ZM211.29 42.456H209.554V45.816C209.554 46.1053 209.619 46.3153 209.75 46.446C209.881 46.5673 210.072 46.6373 210.324 46.656C210.585 46.6653 210.907 46.6607 211.29 46.642V48C210.133 48.14 209.302 48.042 208.798 47.706C208.294 47.3607 208.042 46.7307 208.042 45.816V42.456H206.754V41H208.042V39.488L209.554 39.04V41H211.29V42.456ZM222.712 48L222.026 46.026H217.854L217.168 48H215.418L218.974 38.2H220.906L224.448 48H222.712ZM218.386 44.514H221.494L219.94 40.09L218.386 44.514ZM229.365 40.818C230.327 40.818 231.148 41.1773 231.829 41.896C232.511 42.6053 232.851 43.4733 232.851 44.5C232.851 45.536 232.511 46.4087 231.829 47.118C231.148 47.8273 230.327 48.182 229.365 48.182C228.301 48.182 227.485 47.79 226.915 47.006V50.8H225.403V41H226.915V42.008C227.485 41.2147 228.301 40.818 229.365 40.818ZM227.545 46.11C227.965 46.53 228.493 46.74 229.127 46.74C229.762 46.74 230.289 46.53 230.709 46.11C231.129 45.6807 231.339 45.144 231.339 44.5C231.339 43.856 231.129 43.324 230.709 42.904C230.289 42.4747 229.762 42.26 229.127 42.26C228.493 42.26 227.965 42.4747 227.545 42.904C227.125 43.324 226.915 43.856 226.915 44.5C226.915 45.144 227.125 45.6807 227.545 46.11ZM238.184 40.818C239.145 40.818 239.967 41.1773 240.648 41.896C241.329 42.6053 241.67 43.4733 241.67 44.5C241.67 45.536 241.329 46.4087 240.648 47.118C239.967 47.8273 239.145 48.182 238.184 48.182C237.12 48.182 236.303 47.79 235.734 47.006V50.8H234.222V41H235.734V42.008C236.303 41.2147 237.12 40.818 238.184 40.818ZM236.364 46.11C236.784 46.53 237.311 46.74 237.946 46.74C238.581 46.74 239.108 46.53 239.528 46.11C239.948 45.6807 240.158 45.144 240.158 44.5C240.158 43.856 239.948 43.324 239.528 42.904C239.108 42.4747 238.581 42.26 237.946 42.26C237.311 42.26 236.784 42.4747 236.364 42.904C235.944 43.324 235.734 43.856 235.734 44.5C235.734 45.144 235.944 45.6807 236.364 46.11ZM244.261 42.932C244.261 43.1653 244.387 43.352 244.639 43.492C244.901 43.6227 245.213 43.7393 245.577 43.842C245.951 43.9353 246.324 44.0473 246.697 44.178C247.071 44.3087 247.383 44.5327 247.635 44.85C247.897 45.158 248.027 45.55 248.027 46.026C248.027 46.698 247.766 47.2253 247.243 47.608C246.73 47.9907 246.081 48.182 245.297 48.182C244.607 48.182 244.014 48.0373 243.519 47.748C243.025 47.4587 242.665 47.0573 242.441 46.544L243.743 45.788C243.986 46.46 244.504 46.796 245.297 46.796C246.091 46.796 246.487 46.5347 246.487 46.012C246.487 45.788 246.357 45.606 246.095 45.466C245.843 45.326 245.531 45.2093 245.157 45.116C244.793 45.0133 244.425 44.8967 244.051 44.766C243.678 44.6353 243.361 44.4207 243.099 44.122C242.847 43.814 242.721 43.4267 242.721 42.96C242.721 42.316 242.964 41.798 243.449 41.406C243.944 41.014 244.555 40.818 245.283 40.818C245.862 40.818 246.375 40.9487 246.823 41.21C247.281 41.462 247.631 41.8167 247.873 42.274L246.599 42.988C246.357 42.456 245.918 42.19 245.283 42.19C244.994 42.19 244.751 42.2553 244.555 42.386C244.359 42.5073 244.261 42.6893 244.261 42.932Z" fill="#42404C"/>
<path d="M68.606 61.7C69.5113 61.7 70.2627 62.0033 70.86 62.61C71.4667 63.2073 71.77 63.954 71.77 64.85C71.77 65.7367 71.4667 66.4833 70.86 67.09C70.2627 67.6967 69.5113 68 68.606 68H66.352V71.5H65.05V61.7H68.606ZM68.606 66.782C69.1473 66.782 69.5953 66.6 69.95 66.236C70.3047 65.8627 70.482 65.4007 70.482 64.85C70.482 64.29 70.3047 63.828 69.95 63.464C69.5953 63.1 69.1473 62.918 68.606 62.918H66.352V66.782H68.606ZM74.2494 65.676C74.6508 64.808 75.3788 64.374 76.4334 64.374V65.648C75.8361 65.62 75.3228 65.7787 74.8934 66.124C74.4641 66.4693 74.2494 67.0247 74.2494 67.79V71.5H73.0314V64.5H74.2494V65.676ZM83.1504 70.618C82.4317 71.3273 81.559 71.682 80.5324 71.682C79.5057 71.682 78.633 71.3273 77.9144 70.618C77.205 69.9087 76.8504 69.036 76.8504 68C76.8504 66.964 77.205 66.0913 77.9144 65.382C78.633 64.6727 79.5057 64.318 80.5324 64.318C81.559 64.318 82.4317 64.6727 83.1504 65.382C83.869 66.0913 84.2284 66.964 84.2284 68C84.2284 69.036 83.869 69.9087 83.1504 70.618ZM80.5324 70.492C81.2324 70.492 81.8204 70.254 82.2964 69.778C82.7724 69.302 83.0104 68.7093 83.0104 68C83.0104 67.2907 82.7724 66.698 82.2964 66.222C81.8204 65.746 81.2324 65.508 80.5324 65.508C79.8417 65.508 79.2584 65.746 78.7824 66.222C78.3064 66.698 78.0684 67.2907 78.0684 68C78.0684 68.7093 78.3064 69.302 78.7824 69.778C79.2584 70.254 79.8417 70.492 80.5324 70.492ZM91.4742 64.5H92.6782V71.206C92.6782 72.242 92.3282 73.0447 91.6282 73.614C90.9282 74.1927 90.0882 74.482 89.1082 74.482C88.3242 74.482 87.6476 74.3327 87.0782 74.034C86.5089 73.7447 86.0796 73.3247 85.7902 72.774L86.8542 72.172C87.2369 72.956 87.9976 73.348 89.1362 73.348C89.8642 73.348 90.4336 73.1567 90.8442 72.774C91.2642 72.3913 91.4742 71.8687 91.4742 71.206V70.212C90.8582 71.1453 89.9809 71.612 88.8422 71.612C87.8436 71.612 86.9989 71.2573 86.3082 70.548C85.6176 69.8387 85.2722 68.9753 85.2722 67.958C85.2722 66.9407 85.6176 66.082 86.3082 65.382C86.9989 64.6727 87.8436 64.318 88.8422 64.318C89.9902 64.318 90.8676 64.78 91.4742 65.704V64.5ZM87.2042 69.736C87.6802 70.212 88.2729 70.45 88.9822 70.45C89.6916 70.45 90.2842 70.212 90.7602 69.736C91.2362 69.26 91.4742 68.6673 91.4742 67.958C91.4742 67.258 91.2362 66.67 90.7602 66.194C90.2842 65.718 89.6916 65.48 88.9822 65.48C88.2729 65.48 87.6802 65.718 87.2042 66.194C86.7282 66.67 86.4902 67.258 86.4902 67.958C86.4902 68.6673 86.7282 69.26 87.2042 69.736ZM95.7416 65.676C96.1429 64.808 96.8709 64.374 97.9256 64.374V65.648C97.3283 65.62 96.8149 65.7787 96.3856 66.124C95.9563 66.4693 95.7416 67.0247 95.7416 67.79V71.5H94.5236V64.5H95.7416V65.676ZM104.531 64.5H105.749V71.5H104.531V70.296C103.924 71.22 103.042 71.682 101.885 71.682C100.905 71.682 100.069 71.3273 99.3785 70.618C98.6879 69.8993 98.3425 69.0267 98.3425 68C98.3425 66.9733 98.6879 66.1053 99.3785 65.396C100.069 64.6773 100.905 64.318 101.885 64.318C103.042 64.318 103.924 64.78 104.531 65.704V64.5ZM102.039 70.506C102.748 70.506 103.341 70.268 103.817 69.792C104.293 69.3067 104.531 68.7093 104.531 68C104.531 67.2907 104.293 66.698 103.817 66.222C103.341 65.7367 102.748 65.494 102.039 65.494C101.339 65.494 100.751 65.7367 100.275 66.222C99.7985 66.698 99.5605 67.2907 99.5605 68C99.5605 68.7093 99.7985 69.3067 100.275 69.792C100.751 70.268 101.339 70.506 102.039 70.506ZM115.154 64.318C115.938 64.318 116.573 64.5747 117.058 65.088C117.543 65.592 117.786 66.278 117.786 67.146V71.5H116.568V67.188C116.568 66.6467 116.428 66.2267 116.148 65.928C115.868 65.6293 115.495 65.48 115.028 65.48C114.505 65.48 114.085 65.6573 113.768 66.012C113.46 66.3573 113.306 66.8893 113.306 67.608V71.5H112.088V67.188C112.088 66.6467 111.953 66.2267 111.682 65.928C111.421 65.6293 111.061 65.48 110.604 65.48C110.091 65.48 109.661 65.6573 109.316 66.012C108.98 66.3667 108.812 66.8987 108.812 67.608V71.5H107.594V64.5H108.812V65.438C109.288 64.6913 109.983 64.318 110.898 64.318C111.841 64.318 112.527 64.7147 112.956 65.508C113.441 64.7147 114.174 64.318 115.154 64.318ZM127.035 64.318C127.819 64.318 128.453 64.5747 128.939 65.088C129.424 65.592 129.667 66.278 129.667 67.146V71.5H128.449V67.188C128.449 66.6467 128.309 66.2267 128.029 65.928C127.749 65.6293 127.375 65.48 126.909 65.48C126.386 65.48 125.966 65.6573 125.649 66.012C125.341 66.3573 125.187 66.8893 125.187 67.608V71.5H123.969V67.188C123.969 66.6467 123.833 66.2267 123.563 65.928C123.301 65.6293 122.942 65.48 122.485 65.48C121.971 65.48 121.542 65.6573 121.197 66.012C120.861 66.3667 120.693 66.8987 120.693 67.608V71.5H119.475V64.5H120.693V65.438C121.169 64.6913 121.864 64.318 122.779 64.318C123.721 64.318 124.407 64.7147 124.837 65.508C125.322 64.7147 126.055 64.318 127.035 64.318ZM131.972 63.226C131.738 63.226 131.542 63.1467 131.384 62.988C131.225 62.8293 131.146 62.638 131.146 62.414C131.146 62.19 131.225 61.9987 131.384 61.84C131.542 61.672 131.738 61.588 131.972 61.588C132.196 61.588 132.387 61.672 132.546 61.84C132.704 61.9987 132.784 62.19 132.784 62.414C132.784 62.638 132.704 62.8293 132.546 62.988C132.387 63.1467 132.196 63.226 131.972 63.226ZM131.356 71.5V64.5H132.574V71.5H131.356ZM137.918 64.318C138.739 64.318 139.397 64.5793 139.892 65.102C140.386 65.6153 140.634 66.3153 140.634 67.202V71.5H139.416V67.272C139.416 66.7027 139.262 66.264 138.954 65.956C138.646 65.6387 138.221 65.48 137.68 65.48C137.073 65.48 136.583 65.6713 136.21 66.054C135.836 66.4273 135.65 67.006 135.65 67.79V71.5H134.432V64.5H135.65V65.508C136.144 64.7147 136.9 64.318 137.918 64.318ZM148.144 64.5H149.348V71.206C149.348 72.242 148.998 73.0447 148.298 73.614C147.598 74.1927 146.758 74.482 145.778 74.482C144.994 74.482 144.317 74.3327 143.748 74.034C143.179 73.7447 142.749 73.3247 142.46 72.774L143.524 72.172C143.907 72.956 144.667 73.348 145.806 73.348C146.534 73.348 147.103 73.1567 147.514 72.774C147.934 72.3913 148.144 71.8687 148.144 71.206V70.212C147.528 71.1453 146.651 71.612 145.512 71.612C144.513 71.612 143.669 71.2573 142.978 70.548C142.287 69.8387 141.942 68.9753 141.942 67.958C141.942 66.9407 142.287 66.082 142.978 65.382C143.669 64.6727 144.513 64.318 145.512 64.318C146.66 64.318 147.537 64.78 148.144 65.704V64.5ZM143.874 69.736C144.35 70.212 144.943 70.45 145.652 70.45C146.361 70.45 146.954 70.212 147.43 69.736C147.906 69.26 148.144 68.6673 148.144 67.958C148.144 67.258 147.906 66.67 147.43 66.194C146.954 65.718 146.361 65.48 145.652 65.48C144.943 65.48 144.35 65.718 143.874 66.194C143.398 66.67 143.16 67.258 143.16 67.958C143.16 68.6673 143.398 69.26 143.874 69.736Z" fill="#676767"/>
<path d="M159 59.25V73.75" stroke="#E9E9E9" stroke-width="1.5" stroke-linecap="round"/>
<path d="M174.238 69.796C173.566 70.72 172.623 71.182 171.41 71.182C170.197 71.182 169.249 70.72 168.568 69.796C167.896 68.872 167.56 67.64 167.56 66.1C167.56 64.56 167.896 63.328 168.568 62.404C169.249 61.48 170.197 61.018 171.41 61.018C172.623 61.018 173.566 61.48 174.238 62.404C174.919 63.328 175.26 64.56 175.26 66.1C175.26 67.64 174.919 68.872 174.238 69.796ZM171.41 69.614C172.138 69.614 172.693 69.3107 173.076 68.704C173.459 68.0973 173.65 67.2293 173.65 66.1C173.65 64.9707 173.459 64.1027 173.076 63.496C172.693 62.8893 172.138 62.586 171.41 62.586C170.691 62.586 170.136 62.8893 169.744 63.496C169.361 64.1027 169.17 64.9707 169.17 66.1C169.17 67.2293 169.361 68.0973 169.744 68.704C170.136 69.3107 170.691 69.614 171.41 69.614ZM181.74 65.904C182.702 66.436 183.182 67.2293 183.182 68.284C183.182 69.18 182.87 69.8893 182.244 70.412C181.619 70.9253 180.788 71.182 179.752 71.182C178.716 71.182 177.881 70.9253 177.246 70.412C176.621 69.8893 176.308 69.18 176.308 68.284C176.308 67.78 176.434 67.3227 176.686 66.912C176.938 66.492 177.293 66.156 177.75 65.904C177.013 65.4187 176.644 64.728 176.644 63.832C176.644 62.936 176.943 62.2453 177.54 61.76C178.138 61.2653 178.875 61.018 179.752 61.018C180.62 61.018 181.353 61.2653 181.95 61.76C182.557 62.2453 182.86 62.936 182.86 63.832C182.86 64.728 182.487 65.4187 181.74 65.904ZM179.752 62.544C179.314 62.544 178.954 62.6607 178.674 62.894C178.394 63.1273 178.254 63.4633 178.254 63.902C178.254 64.322 178.394 64.6533 178.674 64.896C178.964 65.1387 179.323 65.26 179.752 65.26C180.172 65.26 180.527 65.1387 180.816 64.896C181.106 64.6533 181.25 64.322 181.25 63.902C181.25 63.4633 181.106 63.1273 180.816 62.894C180.536 62.6607 180.182 62.544 179.752 62.544ZM179.752 69.656C180.294 69.656 180.732 69.5253 181.068 69.264C181.404 68.9933 181.572 68.6153 181.572 68.13C181.572 67.6447 181.404 67.2713 181.068 67.01C180.732 66.7393 180.294 66.604 179.752 66.604C179.202 66.604 178.758 66.7393 178.422 67.01C178.086 67.2713 177.918 67.6447 177.918 68.13C177.918 68.6153 178.086 68.9933 178.422 69.264C178.758 69.5253 179.202 69.656 179.752 69.656ZM186.2 65.61C185.995 65.8153 185.747 65.918 185.458 65.918C185.169 65.918 184.921 65.8153 184.716 65.61C184.511 65.4047 184.408 65.1573 184.408 64.868C184.408 64.5693 184.506 64.322 184.702 64.126C184.907 63.9207 185.159 63.818 185.458 63.818C185.747 63.818 185.995 63.9207 186.2 64.126C186.405 64.3313 186.508 64.5787 186.508 64.868C186.508 65.1573 186.405 65.4047 186.2 65.61ZM186.2 70.86C185.995 71.0653 185.747 71.168 185.458 71.168C185.169 71.168 184.921 71.0653 184.716 70.86C184.511 70.6547 184.408 70.4073 184.408 70.118C184.408 69.8287 184.506 69.5813 184.702 69.376C184.907 69.1707 185.159 69.068 185.458 69.068C185.747 69.068 185.995 69.1707 186.2 69.376C186.405 69.5813 186.508 69.8287 186.508 70.118C186.508 70.4073 186.405 70.6547 186.2 70.86ZM194.472 69.796C193.8 70.72 192.858 71.182 191.644 71.182C190.431 71.182 189.484 70.72 188.802 69.796C188.13 68.872 187.794 67.64 187.794 66.1C187.794 64.56 188.13 63.328 188.802 62.404C189.484 61.48 190.431 61.018 191.644 61.018C192.858 61.018 193.8 61.48 194.472 62.404C195.154 63.328 195.494 64.56 195.494 66.1C195.494 67.64 195.154 68.872 194.472 69.796ZM191.644 69.614C192.372 69.614 192.928 69.3107 193.31 68.704C193.693 68.0973 193.884 67.2293 193.884 66.1C193.884 64.9707 193.693 64.1027 193.31 63.496C192.928 62.8893 192.372 62.586 191.644 62.586C190.926 62.586 190.37 62.8893 189.978 63.496C189.596 64.1027 189.404 64.9707 189.404 66.1C189.404 67.2293 189.596 68.0973 189.978 68.704C190.37 69.3107 190.926 69.614 191.644 69.614ZM203.291 69.796C202.619 70.72 201.676 71.182 200.463 71.182C199.249 71.182 198.302 70.72 197.621 69.796C196.949 68.872 196.613 67.64 196.613 66.1C196.613 64.56 196.949 63.328 197.621 62.404C198.302 61.48 199.249 61.018 200.463 61.018C201.676 61.018 202.619 61.48 203.291 62.404C203.972 63.328 204.313 64.56 204.313 66.1C204.313 67.64 203.972 68.872 203.291 69.796ZM200.463 69.614C201.191 69.614 201.746 69.3107 202.129 68.704C202.511 68.0973 202.703 67.2293 202.703 66.1C202.703 64.9707 202.511 64.1027 202.129 63.496C201.746 62.8893 201.191 62.586 200.463 62.586C199.744 62.586 199.189 62.8893 198.797 63.496C198.414 64.1027 198.223 64.9707 198.223 66.1C198.223 67.2293 198.414 68.0973 198.797 68.704C199.189 69.3107 199.744 69.614 200.463 69.614ZM215.735 71L215.049 69.026H210.877L210.191 71H208.441L211.997 61.2H213.929L217.471 71H215.735ZM211.409 67.514H214.517L212.963 63.09L211.409 67.514ZM227.905 61.2V71H226.295V64.014L223.313 68.942H223.117L220.135 64V71H218.525V61.2H220.261L223.215 66.1L226.183 61.2H227.905Z" fill="#5E9C5E"/>
</svg>
