<svg width="280" height="138" viewBox="0 0 280 138" fill="none" xmlns="http://www.w3.org/2000/svg">
<rect x="54" y="57" width="32" height="61" rx="16" fill="black"/>
<path d="M93.0262 23.802C94.4248 23.802 95.5854 24.2924 96.5081 25.2734C97.4405 26.2543 97.9067 27.4635 97.9067 28.901C97.9067 30.3287 97.4405 31.5379 96.5081 32.5286C95.5854 33.5095 94.4248 34 93.0262 34H89.0198V23.802H93.0262ZM93.0262 32.3975C93.9877 32.3975 94.7696 32.0672 95.3717 31.4068C95.9836 30.7463 96.2896 29.9111 96.2896 28.901C96.2896 27.8812 95.9836 27.0459 95.3717 26.3952C94.7696 25.7347 93.9877 25.4045 93.0262 25.4045H90.6952V32.3975H93.0262ZM100.57 31.028C100.687 31.5816 100.954 32.009 101.372 32.31C101.789 32.6014 102.299 32.7471 102.901 32.7471C103.737 32.7471 104.363 32.446 104.781 31.8438L106.077 32.6014C105.359 33.6601 104.295 34.1894 102.887 34.1894C101.702 34.1894 100.745 33.83 100.017 33.1113C99.2884 32.3829 98.9242 31.4651 98.9242 30.3578C98.9242 29.2701 99.2836 28.3619 100.002 27.6335C100.721 26.8954 101.644 26.5263 102.77 26.5263C103.839 26.5263 104.713 26.9002 105.393 27.6481C106.082 28.3959 106.427 29.304 106.427 30.3724C106.427 30.5375 106.408 30.7561 106.369 31.028H100.57ZM100.556 29.746H104.839C104.732 29.1535 104.485 28.7067 104.096 28.4056C103.717 28.1046 103.271 27.954 102.756 27.954C102.173 27.954 101.687 28.1143 101.299 28.4348C100.91 28.7553 100.663 29.1924 100.556 29.746ZM111.207 34.1894C110.11 34.1894 109.192 33.8203 108.454 33.0822C107.725 32.344 107.361 31.4359 107.361 30.3578C107.361 29.2701 107.725 28.3619 108.454 27.6335C109.192 26.8954 110.11 26.5263 111.207 26.5263C111.916 26.5263 112.562 26.6963 113.145 27.0362C113.727 27.3761 114.164 27.8326 114.456 28.4056L113.101 29.1924C112.936 28.8427 112.683 28.5708 112.343 28.3765C112.013 28.1725 111.63 28.0706 111.192 28.0706C110.551 28.0706 110.012 28.2891 109.575 28.7262C109.148 29.1632 108.934 29.7071 108.934 30.3578C108.934 31.0086 109.148 31.5525 109.575 31.9895C110.012 32.4266 110.551 32.6451 111.192 32.6451C111.62 32.6451 112.003 32.5431 112.343 32.3392C112.693 32.1352 112.955 31.8633 113.13 31.5233L114.485 32.2955C114.174 32.8782 113.727 33.3396 113.145 33.6795C112.562 34.0194 111.916 34.1894 111.207 34.1894ZM116.747 31.028C116.863 31.5816 117.13 32.009 117.548 32.31C117.966 32.6014 118.476 32.7471 119.078 32.7471C119.913 32.7471 120.539 32.446 120.957 31.8438L122.254 32.6014C121.535 33.6601 120.471 34.1894 119.063 34.1894C117.878 34.1894 116.922 33.83 116.193 33.1113C115.465 32.3829 115.1 31.4651 115.1 30.3578C115.1 29.2701 115.46 28.3619 116.179 27.6335C116.897 26.8954 117.82 26.5263 118.947 26.5263C120.015 26.5263 120.889 26.9002 121.569 27.6481C122.259 28.3959 122.603 29.304 122.603 30.3724C122.603 30.5375 122.584 30.7561 122.545 31.028H116.747ZM116.732 29.746H121.015C120.909 29.1535 120.661 28.7067 120.272 28.4056C119.894 28.1046 119.447 27.954 118.932 27.954C118.349 27.954 117.864 28.1143 117.475 28.4348C117.087 28.7553 116.839 29.1924 116.732 29.746ZM131.942 26.5263C132.768 26.5263 133.433 26.7934 133.938 27.3276C134.443 27.8618 134.696 28.5805 134.696 29.4837V34H133.122V29.5857C133.122 29.0807 132.996 28.6922 132.744 28.4202C132.491 28.1386 132.146 27.9977 131.709 27.9977C131.224 27.9977 130.835 28.158 130.544 28.4785C130.262 28.799 130.121 29.2798 130.121 29.9208V34H128.548V29.5857C128.548 29.0807 128.426 28.6922 128.184 28.4202C127.95 28.1386 127.615 27.9977 127.178 27.9977C126.702 27.9977 126.314 28.1628 126.013 28.4931C125.712 28.8136 125.561 29.2895 125.561 29.9208V34H123.988V26.7157H125.561V27.5898C126.027 26.8808 126.722 26.5263 127.645 26.5263C128.577 26.5263 129.267 26.9099 129.713 27.6772C130.199 26.9099 130.942 26.5263 131.942 26.5263ZM140.503 26.5263C141.503 26.5263 142.358 26.8954 143.067 27.6335C143.776 28.3717 144.13 29.2798 144.13 30.3578C144.13 31.4262 143.776 32.3343 143.067 33.0822C142.358 33.8203 141.503 34.1894 140.503 34.1894C139.395 34.1894 138.546 33.7766 137.953 32.9511V34H136.38V23.802H137.953V27.7501C138.546 26.9342 139.395 26.5263 140.503 26.5263ZM138.609 32.0332C139.046 32.4703 139.594 32.6888 140.255 32.6888C140.915 32.6888 141.464 32.4703 141.901 32.0332C142.338 31.5865 142.557 31.028 142.557 30.3578C142.557 29.6877 142.338 29.1341 141.901 28.697C141.464 28.2502 140.915 28.0269 140.255 28.0269C139.594 28.0269 139.046 28.2502 138.609 28.697C138.172 29.1341 137.953 29.6877 137.953 30.3578C137.953 31.028 138.172 31.5865 138.609 32.0332ZM146.795 31.028C146.911 31.5816 147.178 32.009 147.596 32.31C148.013 32.6014 148.523 32.7471 149.126 32.7471C149.961 32.7471 150.587 32.446 151.005 31.8438L152.301 32.6014C151.583 33.6601 150.519 34.1894 149.111 34.1894C147.926 34.1894 146.969 33.83 146.241 33.1113C145.513 32.3829 145.148 31.4651 145.148 30.3578C145.148 29.2701 145.508 28.3619 146.226 27.6335C146.945 26.8954 147.868 26.5263 148.994 26.5263C150.063 26.5263 150.937 26.9002 151.617 27.6481C152.306 28.3959 152.651 29.304 152.651 30.3724C152.651 30.5375 152.632 30.7561 152.593 31.028H146.795ZM146.78 29.746H151.063C150.956 29.1535 150.709 28.7067 150.32 28.4056C149.941 28.1046 149.495 27.954 148.98 27.954C148.397 27.954 147.911 28.1143 147.523 28.4348C147.134 28.7553 146.887 29.1924 146.78 29.746ZM155.609 27.9395C156.007 27.0362 156.755 26.5846 157.853 26.5846V28.2891C157.25 28.2502 156.726 28.3959 156.279 28.7262C155.832 29.0467 155.609 29.5808 155.609 30.3287V34H154.036V26.7157H155.609V27.9395ZM162.191 34V32.6888L165.746 29.0612C166.61 28.1968 167.042 27.449 167.042 26.8177C167.042 26.3223 166.892 25.9387 166.591 25.6667C166.299 25.3851 165.926 25.2443 165.469 25.2443C164.614 25.2443 163.983 25.6667 163.575 26.5117L162.162 25.6813C162.482 25.0014 162.934 24.4867 163.517 24.137C164.1 23.7874 164.745 23.6126 165.454 23.6126C166.348 23.6126 167.115 23.8942 167.756 24.4575C168.397 25.0209 168.718 25.7881 168.718 26.7594C168.718 27.7986 168.14 28.9058 166.984 30.081L164.682 32.3829H168.907V34H162.191ZM176.84 32.7471C176.141 33.7086 175.16 34.1894 173.897 34.1894C172.635 34.1894 171.649 33.7086 170.94 32.7471C170.241 31.7856 169.891 30.5035 169.891 28.901C169.891 27.2984 170.241 26.0164 170.94 25.0549C171.649 24.0933 172.635 23.6126 173.897 23.6126C175.16 23.6126 176.141 24.0933 176.84 25.0549C177.549 26.0164 177.904 27.2984 177.904 28.901C177.904 30.5035 177.549 31.7856 176.84 32.7471ZM173.897 32.5577C174.655 32.5577 175.233 32.2421 175.631 31.6107C176.029 30.9794 176.228 30.0762 176.228 28.901C176.228 27.7258 176.029 26.8225 175.631 26.1912C175.233 25.5599 174.655 25.2443 173.897 25.2443C173.15 25.2443 172.572 25.5599 172.164 26.1912C171.766 26.8225 171.566 27.7258 171.566 28.901C171.566 30.0762 171.766 30.9794 172.164 31.6107C172.572 32.2421 173.15 32.5577 173.897 32.5577ZM178.723 34V32.6888L182.278 29.0612C183.142 28.1968 183.574 27.449 183.574 26.8177C183.574 26.3223 183.424 25.9387 183.123 25.6667C182.831 25.3851 182.457 25.2443 182.001 25.2443C181.146 25.2443 180.515 25.6667 180.107 26.5117L178.694 25.6813C179.014 25.0014 179.466 24.4867 180.049 24.137C180.632 23.7874 181.277 23.6126 181.986 23.6126C182.88 23.6126 183.647 23.8942 184.288 24.4575C184.929 25.0209 185.25 25.7881 185.25 26.7594C185.25 27.7986 184.672 28.9058 183.516 30.081L181.214 32.3829H185.439V34H178.723ZM188.71 23.802H190.167V34H188.492V25.5939L186.438 26.1766L186.03 24.7489L188.71 23.802Z" fill="black"/>
<path d="M24 23C24 23 19.5 27 19.5 28C19.5 29 24 33.5 24 33.5" stroke="black" stroke-width="1.5" stroke-linecap="round"/>
<path d="M256 23C256 23 260.5 27 260.5 28C260.5 29 256 33.5 256 33.5" stroke="black" stroke-width="1.5" stroke-linecap="round"/>
<circle cx="33" cy="102" r="12" fill="#E7E7E7"/>
<path d="M27.4108 105V104.24L29.8808 101.72C30.5408 101.06 30.8708 100.493 30.8708 100.02C30.8708 99.6267 30.7508 99.32 30.5108 99.1C30.2708 98.88 29.9774 98.77 29.6308 98.77C28.9708 98.77 28.4908 99.0833 28.1908 99.71L27.4108 99.25C27.6308 98.7967 27.9341 98.4533 28.3208 98.22C28.7141 97.9867 29.1474 97.87 29.6208 97.87C30.2074 97.87 30.7174 98.0633 31.1508 98.45C31.5841 98.8367 31.8008 99.3567 31.8008 100.01C31.8008 100.717 31.3841 101.487 30.5508 102.32L28.7608 104.1H31.9308V105H27.4108ZM37.7384 102.8V103.67H36.8884V105H35.9584V103.67H32.3884V102.8L34.8984 98H35.8984L33.3884 102.8H35.9584V100.82H36.8884V102.8H37.7384Z" fill="#676767"/>
<circle cx="70" cy="102" r="12" fill="#DFB0CE"/>
<path d="M64.5475 105V104.24L67.0175 101.72C67.6775 101.06 68.0075 100.493 68.0075 100.02C68.0075 99.6267 67.8875 99.32 67.6475 99.1C67.4075 98.88 67.1142 98.77 66.7675 98.77C66.1075 98.77 65.6275 99.0833 65.3275 99.71L64.5475 99.25C64.7675 98.7967 65.0708 98.4533 65.4575 98.22C65.8508 97.9867 66.2842 97.87 66.7575 97.87C67.3442 97.87 67.8542 98.0633 68.2875 98.45C68.7208 98.8367 68.9375 99.3567 68.9375 100.01C68.9375 100.717 68.5208 101.487 67.6875 102.32L65.8975 104.1H69.0675V105H64.5475ZM72.0828 100.73C72.7428 100.73 73.2995 100.927 73.7528 101.32C74.2128 101.707 74.4428 102.243 74.4428 102.93C74.4428 103.61 74.2095 104.147 73.7428 104.54C73.2761 104.933 72.7095 105.13 72.0428 105.13C71.5095 105.13 71.0328 105.003 70.6128 104.75C70.1928 104.49 69.8995 104.117 69.7328 103.63L70.5228 103.18C70.6161 103.52 70.7961 103.78 71.0628 103.96C71.3295 104.133 71.6561 104.22 72.0428 104.22C72.4828 104.22 72.8395 104.107 73.1128 103.88C73.3861 103.653 73.5228 103.337 73.5228 102.93C73.5228 102.523 73.3861 102.207 73.1128 101.98C72.8395 101.747 72.4895 101.63 72.0628 101.63H70.0828L70.3428 98H74.1728V98.87H71.1828L71.0628 100.73H72.0828Z" fill="black"/>
<circle cx="107" cy="102" r="12" fill="#E7E7E7"/>
<path d="M101.621 105V104.24L104.091 101.72C104.751 101.06 105.081 100.493 105.081 100.02C105.081 99.6267 104.961 99.32 104.721 99.1C104.481 98.88 104.187 98.77 103.841 98.77C103.181 98.77 102.701 99.0833 102.401 99.71L101.621 99.25C101.841 98.7967 102.144 98.4533 102.531 98.22C102.924 97.9867 103.357 97.87 103.831 97.87C104.417 97.87 104.927 98.0633 105.361 98.45C105.794 98.8367 106.011 99.3567 106.011 100.01C106.011 100.717 105.594 101.487 104.761 102.32L102.971 104.1H106.141V105H101.621ZM109.048 100.42C109.748 100.42 110.325 100.64 110.778 101.08C111.232 101.513 111.458 102.077 111.458 102.77C111.458 103.463 111.232 104.03 110.778 104.47C110.325 104.91 109.748 105.13 109.048 105.13C108.342 105.13 107.762 104.91 107.308 104.47C106.862 104.03 106.638 103.463 106.638 102.77C106.638 102.23 106.778 101.763 107.058 101.37L109.308 98H110.368L108.718 100.44C108.865 100.427 108.975 100.42 109.048 100.42ZM107.968 103.84C108.248 104.107 108.608 104.24 109.048 104.24C109.488 104.24 109.845 104.107 110.118 103.84C110.398 103.567 110.538 103.21 110.538 102.77C110.538 102.33 110.398 101.977 110.118 101.71C109.845 101.443 109.488 101.31 109.048 101.31C108.602 101.31 108.242 101.443 107.968 101.71C107.695 101.977 107.558 102.33 107.558 102.77C107.558 103.21 107.695 103.567 107.968 103.84Z" fill="#676767"/>
<circle cx="144" cy="102" r="12" fill="#E7E7E7"/>
<path d="M138.37 105V104.24L140.84 101.72C141.5 101.06 141.83 100.493 141.83 100.02C141.83 99.6267 141.71 99.32 141.47 99.1C141.23 98.88 140.936 98.77 140.59 98.77C139.93 98.77 139.45 99.0833 139.15 99.71L138.37 99.25C138.59 98.7967 138.893 98.4533 139.28 98.22C139.673 97.9867 140.106 97.87 140.58 97.87C141.166 97.87 141.676 98.0633 142.11 98.45C142.543 98.8367 142.76 99.3567 142.76 100.01C142.76 100.717 142.343 101.487 141.51 102.32L139.72 104.1H142.89V105H138.37ZM143.268 98H147.638V98.83L145.088 105H144.118L146.648 98.88H143.268V98Z" fill="#676767"/>
<circle cx="181" cy="102" r="12" fill="#E7E7E7"/>
<path d="M175.474 105V104.24L177.944 101.72C178.604 101.06 178.934 100.493 178.934 100.02C178.934 99.6267 178.814 99.32 178.574 99.1C178.334 98.88 178.041 98.77 177.694 98.77C177.034 98.77 176.554 99.0833 176.254 99.71L175.474 99.25C175.694 98.7967 175.998 98.4533 176.384 98.22C176.778 97.9867 177.211 97.87 177.684 97.87C178.271 97.87 178.781 98.0633 179.214 98.45C179.648 98.8367 179.864 99.3567 179.864 100.01C179.864 100.717 179.448 101.487 178.614 102.32L176.824 104.1H179.994V105H175.474ZM184.419 101.38C184.759 101.553 185.026 101.787 185.219 102.08C185.412 102.373 185.509 102.707 185.509 103.08C185.509 103.72 185.286 104.223 184.839 104.59C184.392 104.95 183.816 105.13 183.109 105.13C182.409 105.13 181.836 104.95 181.389 104.59C180.942 104.223 180.719 103.72 180.719 103.08C180.719 102.707 180.816 102.373 181.009 102.08C181.202 101.787 181.469 101.553 181.809 101.38C181.236 101.02 180.949 100.51 180.949 99.85C180.949 99.2167 181.159 98.73 181.579 98.39C182.006 98.0433 182.516 97.87 183.109 97.87C183.709 97.87 184.219 98.0433 184.639 98.39C185.066 98.73 185.279 99.2167 185.279 99.85C185.279 100.51 184.992 101.02 184.419 101.38ZM183.109 98.76C182.756 98.76 182.459 98.8533 182.219 99.04C181.986 99.2267 181.869 99.5033 181.869 99.87C181.869 100.223 181.989 100.5 182.229 100.7C182.469 100.893 182.762 100.99 183.109 100.99C183.456 100.99 183.749 100.893 183.989 100.7C184.229 100.5 184.349 100.223 184.349 99.87C184.349 99.5033 184.232 99.2267 183.999 99.04C183.766 98.8533 183.469 98.76 183.109 98.76ZM183.109 104.24C183.556 104.24 183.912 104.137 184.179 103.93C184.452 103.717 184.589 103.413 184.589 103.02C184.589 102.633 184.452 102.337 184.179 102.13C183.912 101.917 183.556 101.81 183.109 101.81C182.669 101.81 182.312 101.917 182.039 102.13C181.772 102.337 181.639 102.633 181.639 103.02C181.639 103.413 181.772 103.717 182.039 103.93C182.312 104.137 182.669 104.24 183.109 104.24Z" fill="#676767"/>
<circle cx="218" cy="102" r="12" fill="#E7E7E7"/>
<path d="M212.548 105V104.24L215.018 101.72C215.678 101.06 216.008 100.493 216.008 100.02C216.008 99.6267 215.888 99.32 215.648 99.1C215.408 98.88 215.114 98.77 214.768 98.77C214.108 98.77 213.628 99.0833 213.328 99.71L212.548 99.25C212.768 98.7967 213.071 98.4533 213.458 98.22C213.851 97.9867 214.284 97.87 214.757 97.87C215.344 97.87 215.854 98.0633 216.288 98.45C216.721 98.8367 216.938 99.3567 216.938 100.01C216.938 100.717 216.521 101.487 215.688 102.32L213.898 104.1H217.068V105H212.548ZM222.532 100.22C222.532 100.76 222.388 101.23 222.102 101.63H222.112L219.852 105H218.802L220.462 102.55C220.315 102.563 220.202 102.57 220.122 102.57C219.415 102.57 218.835 102.353 218.382 101.92C217.935 101.48 217.712 100.913 217.712 100.22C217.712 99.5267 217.935 98.9633 218.382 98.53C218.835 98.09 219.415 97.87 220.122 97.87C220.828 97.87 221.405 98.09 221.852 98.53C222.305 98.9633 222.532 99.5267 222.532 100.22ZM219.042 99.16C218.768 99.4267 218.632 99.78 218.632 100.22C218.632 100.66 218.768 101.017 219.042 101.29C219.322 101.557 219.682 101.69 220.122 101.69C220.562 101.69 220.918 101.557 221.192 101.29C221.472 101.017 221.612 100.66 221.612 100.22C221.612 99.78 221.475 99.4267 221.202 99.16C220.928 98.8933 220.568 98.76 220.122 98.76C219.682 98.76 219.322 98.8933 219.042 99.16Z" fill="#676767"/>
<circle cx="255" cy="102" r="12" fill="#E7E7E7"/>
<path d="M251.335 100.87C251.868 100.97 252.305 101.2 252.645 101.56C252.985 101.92 253.155 102.377 253.155 102.93C253.155 103.61 252.921 104.147 252.455 104.54C251.988 104.933 251.421 105.13 250.755 105.13C250.221 105.13 249.748 105.01 249.335 104.77C248.921 104.523 248.628 104.17 248.455 103.71L249.235 103.25C249.441 103.897 249.948 104.22 250.755 104.22C251.188 104.22 251.541 104.107 251.815 103.88C252.088 103.653 252.225 103.337 252.225 102.93C252.225 102.523 252.088 102.207 251.815 101.98C251.541 101.747 251.188 101.63 250.755 101.63H250.515L250.145 101.06L251.765 98.87H248.655V98H252.855V98.82L251.335 100.87ZM258.666 104.14C258.193 104.8 257.53 105.13 256.676 105.13C255.823 105.13 255.16 104.8 254.686 104.14C254.213 103.48 253.976 102.6 253.976 101.5C253.976 100.4 254.213 99.52 254.686 98.86C255.16 98.2 255.823 97.87 256.676 97.87C257.53 97.87 258.193 98.2 258.666 98.86C259.14 99.52 259.376 100.4 259.376 101.5C259.376 102.6 259.14 103.48 258.666 104.14ZM255.366 103.51C255.673 103.983 256.11 104.22 256.676 104.22C257.243 104.22 257.68 103.983 257.986 103.51C258.3 103.037 258.456 102.367 258.456 101.5C258.456 100.633 258.3 99.9633 257.986 99.49C257.68 99.01 257.243 98.77 256.676 98.77C256.11 98.77 255.673 99.0067 255.366 99.48C255.06 99.9533 254.906 100.627 254.906 101.5C254.906 102.367 255.06 103.037 255.366 103.51Z" fill="#676767"/>
<path d="M36.1823 68.2013V75H35.2888V69.6873L33.0646 73.3877H32.9481L30.724 69.697V75H29.8207V68.2013H30.8405L33.0064 71.7949L35.1625 68.2013H36.1823Z" fill="#676767"/>
<path d="M72.4571 68.2013V69.056H70.4466V75H69.553V69.056H67.5523V68.2013H72.4571Z" fill="#D2EDFD"/>
<path d="M105.339 75L103.387 68.2013H104.338L105.892 73.7957L107.544 68.2013H108.456L110.108 73.7957L111.662 68.2013H112.613L110.661 75H109.612L108 69.5708L106.388 75H105.339Z" fill="#676767"/>
<path d="M148.457 68.2013V69.056H146.447V75H145.553V69.056H143.552V68.2013H148.457Z" fill="#676767"/>
<path d="M184.139 69.056H181.128V71.2607H184.012V72.1154H181.128V75H180.224V68.2013H184.139V69.056Z" fill="#676767"/>
<path d="M218.116 75.1263C217.481 75.1263 216.938 74.9773 216.484 74.6795C216.037 74.3816 215.723 73.9737 215.542 73.4557L216.319 73.009C216.585 73.8313 217.19 74.2424 218.135 74.2424C218.602 74.2424 218.958 74.1485 219.204 73.9608C219.45 73.7665 219.573 73.5108 219.573 73.1935C219.573 72.8697 219.45 72.6269 219.204 72.4651C218.958 72.3032 218.547 72.1316 217.97 71.9503C217.685 71.8597 217.468 71.7884 217.32 71.7366C217.171 71.6784 216.983 71.5942 216.756 71.4841C216.536 71.3676 216.371 71.251 216.261 71.1345C216.151 71.0114 216.05 70.8528 215.96 70.6585C215.876 70.4643 215.834 70.2442 215.834 69.9981C215.834 69.4089 216.041 68.9427 216.455 68.5995C216.87 68.2499 217.375 68.075 217.97 68.075C218.508 68.075 218.974 68.211 219.369 68.483C219.77 68.7549 220.071 69.1143 220.272 69.561L219.515 69.9981C219.223 69.2988 218.708 68.9492 217.97 68.9492C217.601 68.9492 217.303 69.0398 217.077 69.2211C216.85 69.4024 216.737 69.6485 216.737 69.9593C216.737 70.2571 216.844 70.4837 217.057 70.6391C217.271 70.7945 217.64 70.9564 218.165 71.1247C218.352 71.183 218.485 71.2251 218.563 71.251C218.64 71.2769 218.76 71.3222 218.922 71.387C219.09 71.4517 219.213 71.5035 219.291 71.5424C219.369 71.5812 219.472 71.6363 219.602 71.7075C219.738 71.7787 219.838 71.8467 219.903 71.9115C219.968 71.9762 220.042 72.0571 220.126 72.1543C220.217 72.2449 220.282 72.3388 220.321 72.4359C220.36 72.533 220.392 72.6464 220.418 72.7759C220.45 72.8989 220.466 73.0316 220.466 73.1741C220.466 73.7698 220.249 74.2457 219.816 74.6018C219.382 74.9514 218.815 75.1263 218.116 75.1263Z" fill="#676767"/>
<path d="M254.116 75.1263C253.481 75.1263 252.938 74.9773 252.484 74.6795C252.037 74.3816 251.723 73.9737 251.542 73.4557L252.319 73.009C252.585 73.8313 253.19 74.2424 254.135 74.2424C254.602 74.2424 254.958 74.1485 255.204 73.9608C255.45 73.7665 255.573 73.5108 255.573 73.1935C255.573 72.8697 255.45 72.6269 255.204 72.4651C254.958 72.3032 254.547 72.1316 253.97 71.9503C253.685 71.8597 253.468 71.7884 253.32 71.7366C253.171 71.6784 252.983 71.5942 252.756 71.4841C252.536 71.3676 252.371 71.251 252.261 71.1345C252.151 71.0114 252.05 70.8528 251.96 70.6585C251.876 70.4643 251.834 70.2442 251.834 69.9981C251.834 69.4089 252.041 68.9427 252.455 68.5995C252.87 68.2499 253.375 68.075 253.97 68.075C254.508 68.075 254.974 68.211 255.369 68.483C255.77 68.7549 256.071 69.1143 256.272 69.561L255.515 69.9981C255.223 69.2988 254.708 68.9492 253.97 68.9492C253.601 68.9492 253.303 69.0398 253.077 69.2211C252.85 69.4024 252.737 69.6485 252.737 69.9593C252.737 70.2571 252.844 70.4837 253.057 70.6391C253.271 70.7945 253.64 70.9564 254.165 71.1247C254.352 71.183 254.485 71.2251 254.563 71.251C254.64 71.2769 254.76 71.3222 254.922 71.387C255.09 71.4517 255.213 71.5035 255.291 71.5424C255.369 71.5812 255.472 71.6363 255.602 71.7075C255.738 71.7787 255.838 71.8467 255.903 71.9115C255.968 71.9762 256.042 72.0571 256.126 72.1543C256.217 72.2449 256.282 72.3388 256.321 72.4359C256.36 72.533 256.392 72.6464 256.418 72.7759C256.45 72.8989 256.466 73.0316 256.466 73.1741C256.466 73.7698 256.249 74.2457 255.816 74.6018C255.382 74.9514 254.815 75.1263 254.116 75.1263Z" fill="#676767"/>
</svg>
